<svg xmlns="http://www.w3.org/2000/svg" width="88" height="12" viewBox="0 0 88 12" preserveAspectRatio="xMidYMin slice">
  <g id="a"  fill-rule="evenodd" transform="translate(-2 -1)">
    <g transform="rotate(90 18.5 18.5)">
      <path d="M10.2643869,9.64272325 C12.4167812,7.55748336 11.0221619,1.94974344 11.0221619,1.94974344 C11.0221619,1.94974344 11.0281014,6.1803009 8.92302444,8.30136125 C6.81794744,10.4224216 2.60973146,10.4260475 2.60973146,10.4260475 C2.60973146,10.4260475 8.11199262,11.7279631 10.2643869,9.64272325 Z" transform="rotate(45 7.038 6.389)"/>
      <path d="M10.338457,21.6234888 C12.4279194,19.5181617 10.9396535,13.8472995 10.9396535,13.8472995 C10.9396535,13.8472995 11.0496883,18.1823339 8.94867122,20.2993035 C6.84765419,22.416273 2.52722299,22.3236036 2.52722299,22.3236036 C2.52722299,22.3236036 8.24899461,23.728816 10.338457,21.6234888 Z" transform="rotate(45 6.99 18.315)"/>
      <path d="M10.3261477,33.5773897 C12.4126584,31.4750366 10.9519442,25.8454809 10.9519442,25.8454809 C10.9519442,25.8454809 11.0360252,30.1130355 8.92988787,32.2351642 C6.82375057,34.3572929 2.53951369,34.321785 2.53951369,34.321785 C2.53951369,34.321785 8.23963692,35.6797429 10.3261477,33.5773897 Z" transform="rotate(45 6.994 30.3)"/>
    </g>
    <g transform="rotate(90 18.5 18.5)">
      <path d="M10.2643869,9.64272325 C12.4167812,7.55748336 11.0221619,1.94974344 11.0221619,1.94974344 C11.0221619,1.94974344 11.0281014,6.1803009 8.92302444,8.30136125 C6.81794744,10.4224216 2.60973146,10.4260475 2.60973146,10.4260475 C2.60973146,10.4260475 8.11199262,11.7279631 10.2643869,9.64272325 Z" transform="rotate(45 7.038 6.389)"/>
      <path d="M10.338457,21.6234888 C12.4279194,19.5181617 10.9396535,13.8472995 10.9396535,13.8472995 C10.9396535,13.8472995 11.0496883,18.1823339 8.94867122,20.2993035 C6.84765419,22.416273 2.52722299,22.3236036 2.52722299,22.3236036 C2.52722299,22.3236036 8.24899461,23.728816 10.338457,21.6234888 Z" transform="rotate(45 6.99 18.315)"/>
      <path d="M10.3261477,33.5773897 C12.4126584,31.4750366 10.9519442,25.8454809 10.9519442,25.8454809 C10.9519442,25.8454809 11.0360252,30.1130355 8.92988787,32.2351642 C6.82375057,34.3572929 2.53951369,34.321785 2.53951369,34.321785 C2.53951369,34.321785 8.23963692,35.6797429 10.3261477,33.5773897 Z" transform="rotate(45 6.994 30.3)"/>
    </g>
    <g transform="matrix(0 -1 1 0 54.97 14)">
      <path d="M10.2643869,9.64272325 C12.4167812,7.55748336 11.0221619,1.94974344 11.0221619,1.94974344 C11.0221619,1.94974344 11.0281014,6.1803009 8.92302444,8.30136125 C6.81794744,10.4224216 2.60973146,10.4260475 2.60973146,10.4260475 C2.60973146,10.4260475 8.11199262,11.7279631 10.2643869,9.64272325 Z" transform="rotate(45 7.038 6.389)"/>
      <path d="M10.338457,21.6234888 C12.4279194,19.5181617 10.9396535,13.8472995 10.9396535,13.8472995 C10.9396535,13.8472995 11.0496883,18.1823339 8.94867122,20.2993035 C6.84765419,22.416273 2.52722299,22.3236036 2.52722299,22.3236036 C2.52722299,22.3236036 8.24899461,23.728816 10.338457,21.6234888 Z" transform="rotate(45 6.99 18.315)"/>
      <path d="M10.3261477,33.5773897 C12.4126584,31.4750366 10.9519442,25.8454809 10.9519442,25.8454809 C10.9519442,25.8454809 11.0360252,30.1130355 8.92988787,32.2351642 C6.82375057,34.3572929 2.53951369,34.321785 2.53951369,34.321785 C2.53951369,34.321785 8.23963692,35.6797429 10.3261477,33.5773897 Z" transform="rotate(45 6.994 30.3)"/>
    </g>
    <path d="M46.5,11 C48.4329966,11 50,9.43299662 50,7.5 C50,5.56700338 48.4329966,4 46.5,4 C44.5670034,4 43,5.56700338 43,7.5 C43,9.43299662 44.5670034,11 46.5,11 Z"/>
  </g>
</svg>
