<svg xmlns="http://www.w3.org/2000/svg" width="47" height="11" viewBox="0 0 47 11">
  <g id="k"  fill-rule="evenodd" transform="translate(0 1)">
    <rect width="13" height="1" x="32" y="4" />
    <rect width="14" height="1" x="3" y="4" />
    <path  d="M17.7962036,5.11047363 C18.9941406,5.62200928 19.5599293,6.69784749 19.7307067,6.95908279 C20.5340827,8.1879938 21.9222142,9 23.5,9 C25.0729398,9 26.4573886,8.1929741 27.2618744,6.97039433 C27.5496212,6.53310449 28.0247803,5.62554932 29.1694946,5.11047363 C30.2397293,4.62891083 33.5091553,4.5 33.5091553,4.5 C33.5091553,4.5 30.2337646,4.30084229 29.1694946,3.90557861 C28.1052246,3.51031494 27.4773118,2.45083 27.2618742,2.0994873 C26.4289588,0.741141961 25.1860517,0 23.5,0 C21.8959572,0 20.4879334,0.839257408 19.6910857,2.10261527 C19.5296795,2.35851593 18.9703979,3.35644531 17.8616333,3.90557861 C17.184218,4.24107928 14.5028076,4.5 14.5028076,4.5 C14.5028076,4.5 16.5982666,4.59893799 17.7962036,5.11047363 Z"/>
    <circle cx="23.5" cy="4.5" r="2.5" />
    <path  d="M2.97454834,4.98895264 C4.01547582,4.98895264 4.98125816,5.06777219 5.75700367,5.2264195 C6.57782083,5.39428438 7.18587697,5.65152264 7.44506836,5.99932861 C7.94921875,6.67584229 8.6365207,7 9.44567871,7 C10.8263906,7 11.9456787,5.88071187 11.9456787,4.5 C11.9456787,3.9252277 11.7517119,3.39575878 11.4256649,2.97347988 C10.9684853,2.38136492 10.2516183,2 9.44567871,2 C8.62751424,2 7.99993896,2.32574463 7.44506817,3.00056924 C6.89019737,3.67539386 4.92010498,4.00744629 2.97454834,4.00744629 C1.0289917,4.00744629 0,4.57281494 0,4.57281494 C0,4.57281494 0.832214355,4.98895264 2.97454834,4.98895264 Z" transform="rotate(-180 5.973 4.5)"/>
    <path  d="M38.0288696,4.98895264 C40.1712036,4.98895264 41.9952393,5.32281494 42.4993896,5.99932861 C43.00354,6.67584229 43.690842,7 44.5,7 C45.8807119,7 47,5.88071187 47,4.5 C47,3.9252277 46.8060332,3.39575878 46.4799862,2.97347988 C46.0228066,2.38136492 45.3059396,2 44.5,2 C43.6818355,2 43.0542603,2.32574463 42.4993895,3.00056924 C41.9445187,3.67539386 39.9744263,4.00744629 38.0288696,4.00744629 C36.083313,4.00744629 35.0543213,4.57281494 35.0543213,4.57281494 C35.0543213,4.57281494 35.8865356,4.98895264 38.0288696,4.98895264 Z"/>
  </g>
</svg>
