<svg xmlns="http://www.w3.org/2000/svg" width="117" height="22" viewBox="0 0 117 22">
  <g  id="c" fill-rule="evenodd" transform="rotate(-180 58.5 11)">
    <rect width="16" height="1" x="46.5" y="10.5"  transform="rotate(90 54.5 11)" rx=".5"/>
    <rect width="11" height="1" x="45" y="10"  transform="rotate(90 50.5 10.5)" rx=".5"/>
    <path  d="M46.6233238,11.3149669 C47.6337329,10.8636259 47.6393505,10.1252911 46.6360759,9.66594376 L44.017649,8.46710205 L1.05028609,10.4065444 C-0.065566372,10.4569113 -0.0727500537,10.5378766 1.04746505,10.5879768 L43.9548345,12.506958 C43.9548345,12.506958 46.6233238,11.3149669 46.6233238,11.3149669 Z" stroke-linecap="square"/>
    <rect width="22" height="1" x="47.5" y="10.5"  transform="rotate(90 58.5 11)" rx=".5"/>
    <rect width="16" height="1" x="54.5" y="10.5"  transform="rotate(90 62.5 11)" rx=".5"/>
    <rect width="11" height="1" x="61" y="10"  transform="rotate(90 66.5 10.5)" rx=".5"/>
    <path  d="M116.053036,11.2985665 C117.059025,10.844148 117.058934,10.1073486 116.053036,9.65297162 L113.427764,8.46710205 L70.4457204,9.89806798 C69.3379755,9.93494722 69.3386191,10.0151736 70.4457203,10.077178 L113.427763,12.484436 C113.427763,12.484436 116.053036,11.2985665 116.053036,11.2985665 Z" stroke-linecap="square" transform="rotate(-180 93.211 10.476)"/>
  </g>
</svg>
