<?xml version="1.0" encoding="utf-8"?>
<!-- Generator: Adobe Illustrator 19.2.1, SVG Export Plug-In . SVG Version: 6.00 Build 0)  -->
<svg version="1.1" id="Layer_1" xmlns="http://www.w3.org/2000/svg" xmlns:xlink="http://www.w3.org/1999/xlink" x="0px" y="0px"
	 viewBox="0 0 842 267" style="enable-background:new 0 0 842 267;" xml:space="preserve">
<style type="text/css">
	.st0{fill:#FFFFFF;}
</style>
<title>Group 7</title>
<desc>Created with Sketch.</desc>
<g>
	<path class="st0" d="M426.1,147.9c6.8,0,11.8-2.4,15.1-7.2s4.9-12.2,4.9-22.1c0-9.6-1.7-17-5.1-22c-3.4-5-8.4-7.5-14.9-7.5
		c-6.8,0-11.8,2.4-15,7.2c-3.3,4.8-4.9,12.2-4.9,22.3c0,9.7,1.7,17,5,21.9S419.5,147.9,426.1,147.9z M420,103.5
		c1.2-3.1,3.3-4.6,6.1-4.6c2.8,0,4.8,1.5,6.1,4.6c1.3,3.1,1.9,8.1,1.9,15.1c0,6.9-0.6,11.9-1.9,15s-3.3,4.6-6.1,4.6
		c-2.9,0-4.9-1.5-6.1-4.6s-1.8-8.1-1.8-15.1C418.2,111.6,418.8,106.5,420,103.5z"/>
	<path class="st0" d="M476.9,147.1h11.8v-11.8h6.9v-9.4h-6.9V90h-11.1l-25,36.9v8.4h24.4V147.1z M463.2,125.9l10.5-15.8
		c1.4-2,2.5-4.1,3.5-6.2h0.3c-0.1,0.5-0.2,2.3-0.3,5.4c-0.1,3.1-0.2,5.4-0.2,7v9.7H463.2z"/>
	<path class="st0" d="M356.8,135.3h24.4v11.8H393v-11.8h6.9v-9.4H393V90h-11.1l-25,36.9V135.3z M377.9,110.1c1.4-2,2.5-4.1,3.5-6.2
		h0.3c-0.1,0.5-0.2,2.3-0.3,5.4c-0.1,3.1-0.2,5.4-0.2,7v9.7h-13.8L377.9,110.1z"/>
	<rect x="97.9" y="146.5" class="st0" width="88.3" height="1.5"/>
	<rect x="97.9" y="214.4" class="st0" width="88.3" height="1.5"/>
	<rect x="97.9" y="155" class="st0" width="88.3" height="1.5"/>
	<rect x="97.9" y="226.3" class="st0" width="23.3" height="1.5"/>
	<rect x="160.8" y="226.3" class="st0" width="23.3" height="1.5"/>
	<path class="st0" d="M109.4,138.7v-19.4h-9.8v19.4H109.4z M101.1,120.8h6.8v16.4h-6.8V120.8z"/>
	<path class="st0" d="M99.6,190.7V210h9.8v-19.4H99.6z M107.9,208.6h-6.8v-16.4h6.8V208.6z"/>
	<path class="st0" d="M99.6,233.1v19.4h9.8v-19.4H99.6z M107.9,251h-6.8v-16.4h6.8V251z"/>
	<path class="st0" d="M109.4,163.5h-9.8v19.4h9.8V163.5z M101.1,181.4V165h6.8v16.4H101.1z"/>
	<path class="st0" d="M126.4,138.7v-19.4h-9.8v19.4H126.4z M118.1,120.8h6.8v16.4h-6.8V120.8z"/>
	<path class="st0" d="M116.6,190.7V210h9.8v-19.4H116.6z M124.9,208.6h-6.8v-16.4h6.8V208.6z"/>
	<path class="st0" d="M126.4,163.5h-9.8v19.4h9.8V163.5z M118.1,181.4V165h6.8v16.4H118.1z"/>
	<path class="st0" d="M143.4,138.7v-19.4h-9.8v19.4H143.4z M135.1,120.8h6.8v16.4h-6.8V120.8z"/>
	<path class="st0" d="M133.6,190.7V210h9.8v-19.4H133.6z M141.9,208.6h-6.8v-16.4h6.8V208.6z"/>
	<path class="st0" d="M247.2,210v-19.4h-9.8V210H247.2z M238.9,192.2h6.8v16.4h-6.8V192.2z"/>
	<path class="st0" d="M143.4,163.5h-9.8v19.4h9.8V163.5z M135.1,181.4V165h6.8v16.4H135.1z"/>
	<path class="st0" d="M162.1,138.7v-19.4h-9.8v19.4H162.1z M153.8,120.8h6.8v16.4h-6.8V120.8z"/>
	<path class="st0" d="M152.3,190.7V210h9.8v-19.4H152.3z M160.6,208.6h-6.8v-16.4h6.8V208.6z"/>
	<path class="st0" d="M267.6,210v-19.4h-9.8V210H267.6z M259.3,192.2h6.8v16.4h-6.8V192.2z"/>
	<path class="st0" d="M162.1,163.5h-9.8v19.4h9.8V163.5z M153.8,181.4V165h6.8v16.4H153.8z"/>
	<path class="st0" d="M179.1,138.7v-19.4h-9.8v19.4H179.1z M170.8,120.8h6.8v16.4h-6.8V120.8z"/>
	<path class="st0" d="M169.3,190.7V210h9.8v-19.4H169.3z M177.6,208.6h-6.8v-16.4h6.8V208.6z"/>
	<path class="st0" d="M291.2,210v-19.4h-14.7V210H291.2z M278,192.2h11.7v16.4H278V192.2z"/>
	<path class="st0" d="M169.3,233.1v19.4h9.8v-19.4H169.3z M177.6,251h-6.8v-16.4h6.8V251z"/>
	<path class="st0" d="M179.1,163.5h-9.8v19.4h9.8V163.5z M170.8,181.4V165h6.8v16.4H170.8z"/>
	<path class="st0" d="M141.1,218.8c-6.6,0-12.9,3.3-16.5,8.5c-0.2,0.3-0.2,0.8,0.2,1c0.3,0.2,0.8,0.2,1-0.2
		c3.4-4.8,9.2-7.9,15.3-7.9c6.6,0,12.1,2.8,15.3,7.8c0.2,0.3,0.7,0.5,1,0.2c0.3-0.2,0.5-0.7,0.2-1
		C154.1,221.8,148.2,218.8,141.1,218.8z"/>
	<path class="st0" d="M102.8,92.5c0.9-0.6,1.9-1.4,3.2-2.1c3.6-2.2,8.3-4.4,14-6.5v8.4h1.5v-8.9c4.2-1.5,8.8-2.8,13.8-3.9v12.6h1.5
		V79.1c4.3-1,8.9-1.8,13.8-2.5v14.4h1.5V76.5c4.4-0.6,9-1.1,13.8-1.4v16.8h1.5V74.9c3.9-0.3,7.9-0.5,12.1-0.6v17.5h1.5V74.3
		c2.5-0.1,5-0.1,7.7-0.1v-1.5c-7.5,0-14.6,0.2-21.3,0.7V73h-1.5v0.6c-4.8,0.4-9.4,0.8-13.8,1.4v-0.3h-1.5v0.5
		c-11.3,1.6-21.1,3.9-29.6,6.8h-1v0.4c-0.1,0-0.2,0.1-0.3,0.1c-6,2.1-10.8,4.4-14.6,6.7c-1.3,0.8-2.4,1.6-3.3,2.2
		c-0.5,0.4-0.9,0.7-1.1,0.9l1,1.1C102,93.2,102.3,92.9,102.8,92.5z"/>
	<rect x="672.7" y="143.4" class="st0" width="88.3" height="1"/>
	<rect x="672.7" y="211.3" class="st0" width="88.3" height="1"/>
	<rect x="672.7" y="153.6" class="st0" width="88.3" height="1"/>
	<rect x="736.8" y="223.2" class="st0" width="23.3" height="1"/>
	<rect x="673.9" y="223.2" class="st0" width="23.3" height="1"/>
	<path class="st0" d="M757.3,137.1v-19.5h-9.8v19.5H757.3z M749,119.1h6.8v16.5H749V119.1z"/>
	<path class="st0" d="M747.5,231.4v19.5h9.8v-19.5H747.5z M755.8,249.4H749v-16.5h6.8V249.4z"/>
	<path class="st0" d="M747.5,161.8v11.4v1v14.3v1v14.8h9.8v-42.4H747.5z M749,174.2h6.8v14.3H749V174.2z M749,202.7v-13.3h6.8v13.3
		H749z M755.8,163.3v9.9H749v-9.9H755.8z"/>
	<path class="st0" d="M740.3,137.1v-19.5h-9.8v19.5H740.3z M732,119.1h6.8v16.5H732V119.1z"/>
	<path class="st0" d="M623.3,15.7v19.5h9.8V15.7H623.3z M631.7,33.7h-6.8V17.2h6.8V33.7z"/>
	<path class="st0" d="M623.3,48v19.5h9.8V48H623.3z M631.7,66h-6.8V49.5h6.8V66z"/>
	<path class="st0" d="M730.5,161.8v11.4v1v14.3v1v14.8h9.8v-42.4H730.5z M732,174.2h6.8v14.3H732V174.2z M732,202.7v-13.3h6.8v13.3
		H732z M738.8,163.3v9.9H732v-9.9H738.8z"/>
	<path class="st0" d="M723.3,137.1v-19.5h-9.8v19.5H723.3z M715,119.1h6.8v16.5H715V119.1z"/>
	<path class="st0" d="M606.3,15.7v19.5h9.8V15.7H606.3z M614.7,33.7h-6.8V17.2h6.8V33.7z"/>
	<path class="st0" d="M606.3,48v19.5h9.8V48H606.3z M614.7,66h-6.8V49.5h6.8V66z"/>
	<path class="st0" d="M713.5,161.8v42.4h9.8v-42.4H713.5z M721.8,163.3v39.4H715v-39.4H721.8z"/>
	<path class="st0" d="M706.3,137.1v-19.5h-9.8v19.5H706.3z M698,119.1h6.8v16.5H698V119.1z"/>
	<path class="st0" d="M589.3,15.7v19.5h9.8V15.7H589.3z M597.6,33.7h-6.8V17.2h6.8V33.7z"/>
	<path class="st0" d="M589.3,48v19.5h9.8V48H589.3z M597.6,66h-6.8V49.5h6.8V66z"/>
	<path class="st0" d="M689.3,137.1v-19.5h-9.8v19.5H689.3z M681,119.1h6.8v16.5H681V119.1z"/>
	<path class="st0" d="M572.3,15.7v19.5h9.8V15.7H572.3z M580.6,33.7h-6.8V17.2h6.8V33.7z"/>
	<path class="st0" d="M572.3,48v19.5h9.8V48H572.3z M580.6,66h-6.8V49.5h6.8V66z"/>
	<path class="st0" d="M623.3,80.3v19.5h9.8V80.3H623.3z M631.7,98.2h-6.8V81.8h6.8V98.2z"/>
	<path class="st0" d="M606.3,80.3v19.5h9.8V80.3H606.3z M614.7,98.2h-6.8V81.8h6.8V98.2z"/>
	<path class="st0" d="M589.3,80.3v19.5h9.8V80.3H589.3z M597.6,98.2h-6.8V81.8h6.8V98.2z"/>
	<path class="st0" d="M572.3,80.3v19.5h9.8V80.3H572.3z M580.6,98.2h-6.8V81.8h6.8V98.2z"/>
	<path class="st0" d="M623.3,112.5V132h9.8v-19.5H623.3z M631.7,130.5h-6.8V114h6.8V130.5z"/>
	<path class="st0" d="M606.3,112.5V132h9.8v-19.5H606.3z M614.7,130.5h-6.8V114h6.8V130.5z"/>
	<path class="st0" d="M589.3,112.5V132h9.8v-19.5H589.3z M597.6,130.5h-6.8V114h6.8V130.5z"/>
	<path class="st0" d="M572.3,112.5V132h9.8v-19.5H572.3z M580.6,130.5h-6.8V114h6.8V130.5z"/>
	<path class="st0" d="M623.3,144.8v19.5h9.8v-19.5H623.3z M631.7,162.8h-6.8v-16.5h6.8V162.8z"/>
	<path class="st0" d="M606.3,144.8v19.5h9.8v-19.5H606.3z M614.7,162.8h-6.8v-16.5h6.8V162.8z"/>
	<path class="st0" d="M589.3,144.8v19.5h9.8v-19.5H589.3z M597.6,162.8h-6.8v-16.5h6.8V162.8z"/>
	<path class="st0" d="M572.3,144.8v19.5h9.8v-19.5H572.3z M580.6,162.8h-6.8v-16.5h6.8V162.8z"/>
	<path class="st0" d="M623.3,177.1v19.5h9.8v-19.5H623.3z M631.7,195.1h-6.8v-16.5h6.8V195.1z"/>
	<path class="st0" d="M606.3,177.1v19.5h9.8v-19.5H606.3z M614.7,195.1h-6.8v-16.5h6.8V195.1z"/>
	<path class="st0" d="M589.3,177.1v19.5h9.8v-19.5H589.3z M597.6,195.1h-6.8v-16.5h6.8V195.1z"/>
	<path class="st0" d="M572.3,177.1v19.5h9.8v-19.5H572.3z M580.6,195.1h-6.8v-16.5h6.8V195.1z"/>
	<path class="st0" d="M679.5,231.4v19.5h9.8v-19.5H679.5z M687.8,249.4H681v-16.5h6.8V249.4z"/>
	<path class="st0" d="M689.3,161.8h-9.8v11.4v1v30h9.8v-14.8h0.4v-1h-0.4V161.8z M687.8,189.5v13.3H681v-28.5h6.8v14.3h-6.6v1H687.8
		z M687.8,173.2H681v-9.9h6.8V173.2z"/>
	<polygon class="st0" points="698.2,230.7 697.4,230.7 697.4,231.4 697.4,260.7 698.9,260.7 698.9,232.2 716.4,232.2 716.4,260.3 
		717.4,260.3 717.4,232.2 734.2,232.2 734.2,260.7 735.7,260.7 735.7,231.4 735.7,230.7 734.9,230.7 	"/>
	<path class="st0" d="M702.2,224.8c3.2-5.1,8.7-7.9,15.3-7.9c6.1,0,11.9,3,15.3,7.9c0.2,0.3,0.7,0.4,1,0.2s0.4-0.7,0.2-1
		c-3.7-5.2-10-8.5-16.5-8.5c-7.1,0-13.1,3-16.6,8.6c-0.2,0.3-0.1,0.8,0.2,1C701.5,225.2,702,225.1,702.2,224.8z"/>
	<path class="st0" d="M630.1,231.4v29.2h14.7v-29.2H630.1z M643.4,259.2h-11.7v-26.2h11.7V259.2z"/>
	<path class="st0" d="M582.5,231.4v29.2h36.8v-29.2H582.5z M617.8,259.2H584v-26.2h33.8V259.2z"/>
	<path class="st0" d="M557,231.4v29.2h14.7v-29.2H557z M570.2,259.2h-11.7v-26.2h11.7V259.2z"/>
	<path class="st0" d="M706.6,174.2v-1h-0.4v-11.4h-9.8v42.4h9.8v-14.8h0.4v-1h-0.4v-14.3H706.6z M704.8,188.5h-6.6v1h6.6v13.3H698
		v-39.4h6.8v9.9h-6.6v1h6.6V188.5z"/>
	<path class="st0" d="M839.3,261.7h-32.7v-14.5c0.6-0.2,1.3-0.4,2-0.6c3-1,6.1-2.3,8.9-4c6.3-3.8,10.8-9,12.4-15.8
		c2-8.5-0.4-18.8-8.2-31.3c-4.9-7.9-11.3-11.5-17.9-10.9c-5.5,0.4-10.7,3.7-13.2,7.9c-1.2,2-1.8,3.7-2.6,7.5c-0.2,1-0.3,1.4-0.5,1.9
		c-0.9,3.6-2,5.9-4.1,8.2c-9.7,10.5-5.3,20.9,7.9,30.2c2.8,2,5.8,3.8,8.8,5.4c1.1,0.5,2,1,2.9,1.4c0.2,0.1,0.5,0.2,0.7,0.3v14.2
		h-30.2v-156c0-0.8-0.7-1.5-1.5-1.5h-4.9v-6.5h0.4v-1h-0.4v-0.3h-0.7h-96.9h-0.7v0.3h-3.2v1h3.2v6.5h-9.5c-0.8,0-1.5,0.7-1.5,1.5
		v108.9h-10.8V2.1V0.6h-1.5H557h-1.5v1.5v212.5h-13.8h-1.5v1.5v45.6H317.4v-42.2v-1.5h-1.5h-12.6V5.5V4h-1.5h-88.3h-1.5v1.5v212.5
		h-11.8V107.4c0-0.8-0.7-1.5-1.5-1.5h-7.9V93.8H92.8v12.1H86c-0.8,0-1.5,0.7-1.5,1.5v154.3H36.7v-14.2c0.2-0.1,0.4-0.2,0.7-0.3
		c0.9-0.4,1.9-0.9,2.9-1.4c3-1.6,6-3.4,8.8-5.4c13.1-9.4,17.6-19.8,7.9-30.2c-2.1-2.3-3.2-4.6-4.1-8.2c-0.1-0.5-0.2-0.9-0.5-1.9
		c-0.9-3.7-1.4-5.4-2.6-7.5c-2.5-4.2-7.7-7.5-13.2-7.9c-6.7-0.5-13,3-17.9,10.9c-7.8,12.5-10.2,22.8-8.2,31.3
		c1.6,6.8,6.1,12,12.4,15.8c2.8,1.7,5.9,3,8.9,4c0.7,0.2,1.3,0.4,2,0.6v14.5H2.3c-1.2,0-2.2,1-2.2,2.2c0,1.2,1,2.2,2.2,2.2h83.1
		c0.2,0.1,0.4,0.2,0.7,0.2s0.5-0.1,0.7-0.2h111.4c0.2,0.1,0.4,0.2,0.7,0.2s0.5-0.1,0.7-0.2h639.8c1.2,0,2.2-1,2.2-2.2
		C841.6,262.7,840.5,261.7,839.3,261.7z M803.5,245.8c-0.9-0.4-1.8-0.9-2.8-1.4c-2.9-1.5-5.9-3.3-8.6-5.3
		c-12.5-8.9-16.6-18.4-7.6-28c2.3-2.5,3.5-5,4.5-8.8c0.1-0.5,0.2-0.9,0.5-2c0.9-3.6,1.4-5.2,2.5-7c2.2-3.8,7-6.8,12-7.2
		c6.1-0.5,11.9,2.8,16.6,10.2c7.6,12.1,9.9,22.1,8,30.1c-1.5,6.4-5.7,11.3-11.7,14.9c-2.7,1.6-5.7,2.9-8.6,3.9
		c-0.5,0.2-1,0.3-1.5,0.5v-12.4c0.2-0.1,0.4-0.2,0.5-0.3l11.1-11.1c0.6-0.6,0.6-1.5,0-2.1c-0.6-0.6-1.5-0.6-2.1,0l-9.6,9.5v-21.1
		c0-0.8-0.7-1.5-1.5-1.5c-0.8,0-1.5,0.7-1.5,1.5v15.7l-8.6-8.5c-0.6-0.6-1.5-0.6-2.1,0s-0.6,1.5,0,2.1l10.7,10.6L803.5,245.8
		C803.5,245.8,803.5,245.8,803.5,245.8z M32.2,245.2c-2.9-0.9-5.9-2.2-8.6-3.9c-6-3.6-10.2-8.5-11.7-14.9c-1.9-8,0.4-18,8-30.1
		c4.7-7.5,10.5-10.7,16.6-10.2c5,0.4,9.8,3.4,12,7.2c1.1,1.8,1.6,3.4,2.5,7c0.2,1,0.3,1.4,0.5,2c1,3.8,2.2,6.3,4.5,8.8
		c8.9,9.6,4.9,19.1-7.6,28c-2.7,2-5.7,3.7-8.6,5.3c-1,0.5-2,1-2.8,1.4c0,0,0,0,0,0V228l10.7-10.6c0.6-0.6,0.6-1.5,0-2.1
		c-0.6-0.6-1.5-0.6-2.1,0l-8.6,8.5v-15.7c0-0.8-0.7-1.5-1.5-1.5c-0.8,0-1.5,0.7-1.5,1.5v21.1l-9.6-9.5c-0.6-0.6-1.5-0.6-2.1,0
		c-0.6,0.6-0.6,1.5,0,2.1l11.1,11.1c0.2,0.2,0.3,0.3,0.5,0.3v12.4C33.3,245.6,32.8,245.4,32.2,245.2z M660.6,214.7V107.2h109.8
		v154.5H660.9v-45.6v-1.5H660.6z M670,98h95.4v6.2h-3.9v-5.3h-1v5.3h-4.1v-5.3h-1v5.3h-4.1v-5.3h-1v5.3h-4.1v-5.3h-1v5.3h-4.1v-5.3
		h-1v5.3h-4.1v-5.3h-1v5.3H731v-5.3h-1v5.3h-4.1v-5.3h-1v5.3h-4.1v-5.3h-1v5.3h-4.1v-5.3h-1v5.3h-4.1v-5.3h-1v5.3h-4.1v-5.3h-1v5.3
		h-4.1v-5.3h-1v5.3h-4.1v-5.3h-1v5.3h-4.1v-5.3h-1v5.3H685v-5.3h-1v5.3h-4.1v-5.3h-1v5.3h-4.1v-5.3h-1v5.3H670V98z M558.5,3.6h85.3
		v211h-85.3V3.6z M543.2,217.7h12.3v0.2h1.5h88.3h1.5v-0.2h10.8v44.1H543.2V217.7z M228.3,210v-19.4H215V7h85.3v57.2h-71.5h-0.7V65
		v14.5v0.7h0.7h71.5V88h-71.5h-0.7v0.7v14.5v0.7h0.7h71.5v7.7h-71.5h-0.7v0.7v14.5v0.7h0.7h71.5v7.7h-71.5h-0.7v0.7v14.5v0.7h0.7
		h71.5v9.4h-71.5h-0.7v0.7v14.5v0.7h0.7h71.5v40.1H215V210H228.3z M215,208.6v-16.4h11.7v16.4H215z M229.6,162.5h70.7v13h-70.7
		V162.5z M229.6,137.1h70.7v13h-70.7V137.1z M229.6,113.3h70.7v13h-70.7V113.3z M229.6,89.5h70.7v13h-70.7V89.5z M229.6,65.7h70.7
		v13h-70.7V65.7z M314.4,221v40.7h-13.1v-28.6h-14.7v28.6h-10.8v-28.6h-14.7v28.6h-9.1v-28.6h-14.7v28.6h-9.1v-28.6h-14.7v28.6
		h-13.3V221H314.4z M288.2,260.7v-26.1h11.7v26.1H288.2z M262.7,260.7v-26.1h11.7v26.1H262.7z M238.9,260.7v-26.1h11.7v26.1H238.9z
		 M215,260.7v-26.1h11.7v26.1H215z M94.3,95.3h95.1v10.6H94.3V95.3z M87.5,108.9h109.8v109.1h-0.6v1.5v42.2h-37.5v-28.6v-0.7h-0.7
		h-36.8H121v0.7v28.6H87.5V108.9z M122.5,233.9h35.3v27.8h-35.3V233.9z"/>
	<polygon class="st0" points="425.5,19.1 425.5,4.4 425.5,3.7 424,3.7 424,4.4 424,19.1 424,19.8 425.5,19.8 	"/>
	<polygon class="st0" points="312.2,120.3 326.9,120.1 327.6,120.1 327.6,118.6 326.8,118.6 312.2,118.8 311.4,118.8 311.4,120.3 	
		"/>
	<polygon class="st0" points="523,120.3 537.7,120.1 538.5,120.1 538.4,118.6 537.7,118.6 523,118.8 522.3,118.8 522.3,120.3 	"/>
	<polygon class="st0" points="345.4,200.2 355.6,189.7 356.1,189.1 355.1,188.1 354.5,188.6 344.3,199.2 343.8,199.7 344.9,200.8 	
		"/>
	<polygon class="st0" points="494.5,51.1 504.7,40.6 505.2,40 504.1,39 503.6,39.5 493.4,50.1 492.9,50.6 494,51.7 	"/>
	<polygon class="st0" points="355.8,50.5 356.3,51.1 357.3,50 356.8,49.5 346.2,39.3 345.7,38.7 344.7,39.8 345.2,40.3 	"/>
	<polygon class="st0" points="494.8,187.8 493.7,188.9 494.3,189.4 504.8,199.6 505.4,200.1 506.4,199.1 505.9,198.5 495.3,188.4 	
		"/>
	<polygon class="st0" points="424,246.7 424,247.5 425.5,247.5 425.5,246.7 425.5,232.1 425.5,231.3 424,231.3 424,232.1 	"/>
</g>
</svg>
