<?xml version="1.0" encoding="utf-8"?>
<!-- Generator: Adobe Illustrator 19.2.1, SVG Export Plug-In . SVG Version: 6.00 Build 0)  -->
<svg version="1.1" id="build" xmlns="http://www.w3.org/2000/svg" xmlns:xlink="http://www.w3.org/1999/xlink" x="0px" y="0px"
	 viewBox="0 0 909 323" style="enable-background:new 0 0 909 323;" xml:space="preserve">

<title>Group 8</title>
<desc>Created with Sketch.</desc>
<g>
	<polygon class="st0" points="574.6,72.1 572.5,70 571.4,71.1 565.3,77.3 559.1,71.1 558,70 555.9,72.1 556.9,73.2 563.1,79.4 
		557.9,84.6 556.9,85.6 559,87.8 560.1,86.7 565.3,81.5 570.4,86.7 571.5,87.8 573.6,85.6 572.6,84.6 567.4,79.4 573.6,73.2 	"/>
	<polygon class="st0" points="517.1,79.4 511.9,84.6 510.9,85.6 513,87.8 514.1,86.7 519.3,81.5 524.4,86.7 525.5,87.8 527.6,85.6 
		526.6,84.6 521.4,79.4 527.6,73.2 528.6,72.1 526.5,70 525.4,71.1 519.3,77.3 513.1,71.1 512,70 509.9,72.1 510.9,73.2 	"/>
	<polygon class="st0" points="497.1,79.4 491.9,84.6 490.9,85.6 493,87.8 494.1,86.7 499.3,81.5 504.4,86.7 505.5,87.8 507.6,85.6 
		506.6,84.6 501.4,79.4 507.6,73.2 508.6,72.1 506.5,70 505.4,71.1 499.3,77.3 493.1,71.1 492,70 489.9,72.1 490.9,73.2 	"/>
	<polygon class="st0" points="477.1,79.4 471.9,84.6 470.9,85.6 473,87.8 474.1,86.7 479.3,81.5 484.4,86.7 485.5,87.8 487.6,85.6 
		486.6,84.6 481.4,79.4 487.6,73.2 488.6,72.1 486.5,70 485.4,71.1 479.3,77.3 473.1,71.1 472,70 469.9,72.1 470.9,73.2 	"/>
	<polygon class="st0" points="457.1,79.4 451.9,84.6 450.9,85.6 453,87.8 454.1,86.7 459.3,81.5 464.4,86.7 465.5,87.8 467.6,85.6 
		466.6,84.6 461.4,79.4 467.6,73.2 468.6,72.1 466.5,70 465.4,71.1 459.3,77.3 453.1,71.1 452,70 449.9,72.1 450.9,73.2 	"/>
	<polygon class="st0" points="437.1,79.4 431.9,84.6 430.9,85.6 433,87.8 434.1,86.7 439.3,81.5 444.4,86.7 445.5,87.8 447.6,85.6 
		446.6,84.6 441.4,79.4 447.6,73.2 448.6,72.1 446.5,70 445.4,71.1 439.3,77.3 433.1,71.1 432,70 429.9,72.1 430.9,73.2 	"/>
	<polygon class="st0" points="417.1,79.4 411.9,84.6 410.9,85.6 413,87.8 414.1,86.7 419.3,81.5 424.4,86.7 425.5,87.8 427.6,85.6 
		426.6,84.6 421.4,79.4 427.6,73.2 428.6,72.1 426.5,70 425.4,71.1 419.3,77.3 413.1,71.1 412,70 409.9,72.1 410.9,73.2 	"/>
	<polygon class="st0" points="397.1,79.4 391.9,84.6 390.9,85.6 393,87.8 394.1,86.7 399.3,81.5 404.4,86.7 405.5,87.8 407.6,85.6 
		406.6,84.6 401.4,79.4 407.6,73.2 408.6,72.1 406.5,70 405.4,71.1 399.3,77.3 393.1,71.1 392,70 389.9,72.1 390.9,73.2 	"/>
	<rect x="710" y="100.1" class="st0" width="43.4" height="1.5"/>
	<rect x="710" y="114.1" class="st0" width="53.5" height="1.5"/>
	<rect x="710" y="128.1" class="st0" width="61.6" height="1.5"/>
	<rect x="710" y="141.1" class="st0" width="69.7" height="1.5"/>
	<rect x="710" y="155.1" class="st0" width="75.7" height="1.5"/>
	<rect x="710" y="169.1" class="st0" width="81.8" height="1.5"/>
	<rect x="710" y="183.1" class="st0" width="85.8" height="1.5"/>
	<rect x="710" y="197.1" class="st0" width="89.9" height="1.5"/>
	<rect x="710" y="211.1" class="st0" width="93.9" height="1.5"/>
	<rect x="710" y="225.1" class="st0" width="95.9" height="1.5"/>
	<rect x="710" y="238.1" class="st0" width="99.9" height="1.5"/>
	<rect x="710" y="252.1" class="st0" width="102" height="1.5"/>
	<rect x="710" y="266.1" class="st0" width="104" height="1.5"/>
	<path class="st0" d="M707,302.6c0.4,0,0.7-0.3,0.7-0.7c0-6.1,5.1-11,11.4-11s11.4,4.9,11.4,11c0,0.4,0.3,0.7,0.7,0.7
		s0.7-0.3,0.7-0.7c0-6.9-5.8-12.5-12.9-12.5s-12.9,5.6-12.9,12.5C706.3,302.3,706.6,302.6,707,302.6z"/>
	<path class="st0" d="M740,302.6c0.4,0,0.7-0.3,0.7-0.7c0-6.1,5.1-11,11.4-11s11.4,4.9,11.4,11c0,0.4,0.3,0.7,0.7,0.7
		s0.7-0.3,0.7-0.7c0-6.9-5.8-12.5-12.9-12.5s-12.9,5.6-12.9,12.5C739.3,302.3,739.6,302.6,740,302.6z"/>
	<path class="st0" d="M771,302.6c0.4,0,0.7-0.3,0.7-0.7c0-6.1,5.1-11,11.4-11s11.4,4.9,11.4,11c0,0.4,0.3,0.7,0.7,0.7
		s0.7-0.3,0.7-0.7c0-6.9-5.8-12.5-12.9-12.5s-12.9,5.6-12.9,12.5C770.3,302.3,770.6,302.6,771,302.6z"/>
	<path class="st0" d="M803,302.6c0.4,0,0.7-0.3,0.7-0.7c0-6.1,5.1-11,11.4-11s11.4,4.9,11.4,11c0,0.4,0.3,0.7,0.7,0.7
		s0.7-0.3,0.7-0.7c0-6.9-5.8-12.5-12.9-12.5s-12.9,5.6-12.9,12.5C802.3,302.3,802.6,302.6,803,302.6z"/>
	<path class="st0" d="M650,265.5h9.8v-19.4H650V265.5z M651.5,247.6h6.8V264h-6.8V247.6z"/>
	<path class="st0" d="M630,265.5h9.8v-19.4H630V265.5z M631.5,247.6h6.8V264h-6.8V247.6z"/>
	<path class="st0" d="M606,265.5h14.7v-19.4H606V265.5z M607.5,247.6h11.7V264h-11.7V247.6z"/>
	<path class="st0" d="M683.7,288.1H669v29.1h14.7V288.1z M682.2,315.7h-11.7v-26.1h11.7V315.7z"/>
	<path class="st0" d="M660.7,288.1H646v29.1h14.7V288.1z M659.2,315.7h-11.7v-26.1h11.7V315.7z"/>
	<path class="st0" d="M636.7,288.1H622v29.1h14.7V288.1z M635.2,315.7h-11.7v-26.1h11.7V315.7z"/>
	<path class="st0" d="M610.7,288.1H596v29.1h14.7V288.1z M609.2,315.7h-11.7v-26.1h11.7V315.7z"/>
	<path class="st0" d="M334,313.5h14.7v-19.4H334V313.5z M335.5,295.6h11.7V312h-11.7V295.6z"/>
	<path class="st0" d="M348.7,264.1H334v19.4h14.7V264.1z M347.2,282h-11.7v-16.4h11.7V282z"/>
	<path class="st0" d="M354,313.5h14.7v-19.4H354V313.5z M355.5,295.6h11.7V312h-11.7V295.6z"/>
	<path class="st0" d="M374,313.5h14.7v-19.4H374V313.5z M375.5,295.6h11.7V312h-11.7V295.6z"/>
	<path class="st0" d="M374,283.5h14.7v-19.4H374V283.5z M375.5,265.6h11.7V282h-11.7V265.6z"/>
	<path class="st0" d="M388.7,234.1H374v19.4h14.7V234.1z M387.2,252h-11.7v-16.4h11.7V252z"/>
	<path class="st0" d="M394,313.5h14.7v-19.4H394V313.5z M395.5,295.6h11.7V312h-11.7V295.6z"/>
	<path class="st0" d="M414,313.5h14.7v-19.4H414V313.5z M415.5,295.6h11.7V312h-11.7V295.6z"/>
	<path class="st0" d="M434,313.5h14.7v-19.4H434V313.5z M435.5,295.6h11.7V312h-11.7V295.6z"/>
	<path class="st0" d="M454,313.5h14.7v-19.4H454V313.5z M455.5,295.6h11.7V312h-11.7V295.6z"/>
	<path class="st0" d="M474,313.5h14.7v-19.4H474V313.5z M475.5,295.6h11.7V312h-11.7V295.6z"/>
	<path class="st0" d="M474,283.5h14.7v-19.4H474V283.5z M475.5,265.6h11.7V282h-11.7V265.6z"/>
	<path class="st0" d="M474,253.5h14.7v-19.4H474V253.5z M475.5,235.6h11.7V252h-11.7V235.6z"/>
	<path class="st0" d="M488.7,204.1H474v19.4h14.7V204.1z M487.2,222h-11.7v-16.4h11.7V222z"/>
	<path class="st0" d="M454,283.5h14.7v-19.4H454V283.5z M455.5,265.6h11.7V282h-11.7V265.6z"/>
	<path class="st0" d="M468.7,234.1H454v19.4h14.7V234.1z M467.2,252h-11.7v-16.4h11.7V252z"/>
	<path class="st0" d="M434,283.5h14.7v-19.4H434V283.5z M435.5,265.6h11.7V282h-11.7V265.6z"/>
	<path class="st0" d="M448.7,234.1H434v19.4h14.7V234.1z M447.2,252h-11.7v-16.4h11.7V252z"/>
	<path class="st0" d="M414,283.5h14.7v-19.4H414V283.5z M415.5,265.6h11.7V282h-11.7V265.6z"/>
	<path class="st0" d="M428.7,234.1H414v19.4h14.7V234.1z M427.2,252h-11.7v-16.4h11.7V252z"/>
	<path class="st0" d="M394,283.5h14.7v-19.4H394V283.5z M395.5,265.6h11.7V282h-11.7V265.6z"/>
	<path class="st0" d="M408.7,234.1H394v19.4h14.7V234.1z M407.2,252h-11.7v-16.4h11.7V252z"/>
	<path class="st0" d="M368.7,264.1H354v19.4h14.7V264.1z M367.2,282h-11.7v-16.4h11.7V282z"/>
	<rect x="81.1" y="199.4" class="st0" width="88.3" height="1"/>
	<rect x="81.1" y="267.3" class="st0" width="88.3" height="1"/>
	<rect x="81.1" y="209.6" class="st0" width="88.3" height="1"/>
	<rect x="81.9" y="279.2" class="st0" width="23.3" height="1"/>
	<rect x="144.8" y="279.2" class="st0" width="23.3" height="1"/>
	<path class="st0" d="M94.5,173.6h-9.8v19.5h9.8V173.6z M93,191.6h-6.8v-16.5H93V191.6z"/>
	<path class="st0" d="M84.7,306.9h9.8v-19.5h-9.8V306.9z M86.2,289H93v16.5h-6.8V289z"/>
	<path class="st0" d="M94.5,260.2v-14.8v-1v-14.3v-1v-11.4h-9.8v42.4H94.5z M86.2,219.3H93v9.9h-6.8V219.3z M86.2,230.2H93v14.3
		h-6.8V230.2z M86.2,245.5H93v13.3h-6.8V245.5z"/>
	<path class="st0" d="M111.5,173.6h-9.8v19.5h9.8V173.6z M110,191.6h-6.8v-16.5h6.8V191.6z"/>
	<path class="st0" d="M208.8,90.2h9.8V70.7h-9.8V90.2z M210.3,72.2h6.8v16.5h-6.8V72.2z"/>
	<path class="st0" d="M208.8,122.5h9.8V103h-9.8V122.5z M210.3,104.5h6.8V121h-6.8V104.5z"/>
	<path class="st0" d="M111.5,260.2v-14.8v-1v-14.3v-1v-11.4h-9.8v42.4H111.5z M103.2,219.3h6.8v9.9h-6.8V219.3z M103.2,230.2h6.8
		v14.3h-6.8V230.2z M103.2,245.5h6.8v13.3h-6.8V245.5z"/>
	<path class="st0" d="M128.5,173.6h-9.8v19.5h9.8V173.6z M127,191.6h-6.8v-16.5h6.8V191.6z"/>
	<path class="st0" d="M225.8,90.2h9.8V70.7h-9.8V90.2z M227.3,72.2h6.8v16.5h-6.8V72.2z"/>
	<path class="st0" d="M225.8,122.5h9.8V103h-9.8V122.5z M227.3,104.5h6.8V121h-6.8V104.5z"/>
	<path class="st0" d="M128.5,260.2v-42.4h-9.8v42.4H128.5z M120.2,219.3h6.8v39.4h-6.8V219.3z"/>
	<path class="st0" d="M145.5,173.6h-9.8v19.5h9.8V173.6z M144,191.6h-6.8v-16.5h6.8V191.6z"/>
	<path class="st0" d="M242.9,90.2h9.8V70.7h-9.8V90.2z M244.4,72.2h6.8v16.5h-6.8V72.2z"/>
	<path class="st0" d="M242.9,122.5h9.8V103h-9.8V122.5z M244.4,104.5h6.8V121h-6.8V104.5z"/>
	<path class="st0" d="M162.5,173.6h-9.8v19.5h9.8V173.6z M161,191.6h-6.8v-16.5h6.8V191.6z"/>
	<path class="st0" d="M259.9,90.2h9.8V70.7h-9.8V90.2z M261.4,72.2h6.8v16.5h-6.8V72.2z"/>
	<path class="st0" d="M259.9,122.5h9.8V103h-9.8V122.5z M261.4,104.5h6.8V121h-6.8V104.5z"/>
	<path class="st0" d="M208.8,154.7h9.8v-19.5h-9.8V154.7z M210.3,136.8h6.8v16.5h-6.8V136.8z"/>
	<path class="st0" d="M225.8,154.7h9.8v-19.5h-9.8V154.7z M227.3,136.8h6.8v16.5h-6.8V136.8z"/>
	<path class="st0" d="M242.9,154.7h9.8v-19.5h-9.8V154.7z M244.4,136.8h6.8v16.5h-6.8V136.8z"/>
	<path class="st0" d="M259.9,154.7h9.8v-19.5h-9.8V154.7z M261.4,136.8h6.8v16.5h-6.8V136.8z"/>
	<path class="st0" d="M208.8,187h9.8v-19.5h-9.8V187z M210.3,169h6.8v16.5h-6.8V169z"/>
	<path class="st0" d="M225.8,187h9.8v-19.5h-9.8V187z M227.3,169h6.8v16.5h-6.8V169z"/>
	<path class="st0" d="M242.9,187h9.8v-19.5h-9.8V187z M244.4,169h6.8v16.5h-6.8V169z"/>
	<path class="st0" d="M259.9,187h9.8v-19.5h-9.8V187z M261.4,169h6.8v16.5h-6.8V169z"/>
	<path class="st0" d="M208.8,219.3h9.8v-19.5h-9.8V219.3z M210.3,201.3h6.8v16.5h-6.8V201.3z"/>
	<path class="st0" d="M225.8,219.3h9.8v-19.5h-9.8V219.3z M227.3,201.3h6.8v16.5h-6.8V201.3z"/>
	<path class="st0" d="M242.9,219.3h9.8v-19.5h-9.8V219.3z M244.4,201.3h6.8v16.5h-6.8V201.3z"/>
	<path class="st0" d="M259.9,219.3h9.8v-19.5h-9.8V219.3z M261.4,201.3h6.8v16.5h-6.8V201.3z"/>
	<path class="st0" d="M208.8,251.6h9.8v-19.5h-9.8V251.6z M210.3,233.6h6.8v16.5h-6.8V233.6z"/>
	<path class="st0" d="M225.8,251.6h9.8v-19.5h-9.8V251.6z M227.3,233.6h6.8v16.5h-6.8V233.6z"/>
	<path class="st0" d="M242.9,251.6h9.8v-19.5h-9.8V251.6z M244.4,233.6h6.8v16.5h-6.8V233.6z"/>
	<path class="st0" d="M259.9,251.6h9.8v-19.5h-9.8V251.6z M261.4,233.6h6.8v16.5h-6.8V233.6z"/>
	<path class="st0" d="M152.7,306.9h9.8v-19.5h-9.8V306.9z M154.2,289h6.8v16.5h-6.8V289z"/>
	<path class="st0" d="M162.5,260.2v-30v-1v-11.4h-9.8v26.7h-0.4v1h0.4v14.8H162.5z M154.2,219.3h6.8v9.9h-6.8V219.3z M154.2,245.5
		h6.6v-1h-6.6v-14.3h6.8v28.5h-6.8V245.5z"/>
	<polygon class="st0" points="107.1,286.7 106.3,286.7 106.3,287.5 106.3,316.7 107.8,316.7 107.8,288.2 124.6,288.2 124.6,316.3 
		125.6,316.3 125.6,288.2 143.1,288.2 143.1,316.7 144.6,316.7 144.6,287.5 144.6,286.7 143.8,286.7 	"/>
	<path class="st0" d="M109.2,280.8c3.4-4.8,9.2-7.9,15.3-7.9c6.6,0,12.1,2.8,15.3,7.9c0.2,0.3,0.7,0.5,1,0.2s0.5-0.7,0.2-1
		c-3.5-5.5-9.4-8.6-16.6-8.6c-6.6,0-12.9,3.3-16.5,8.5c-0.2,0.3-0.2,0.8,0.2,1S108.9,281.1,109.2,280.8z"/>
	<path class="st0" d="M211.9,287.5h-14.7v29.2h14.7V287.5z M210.4,315.2h-11.7V289h11.7V315.2z"/>
	<path class="st0" d="M259.5,287.5h-36.8v29.2h36.8V287.5z M258,315.2h-33.8V289H258V315.2z"/>
	<path class="st0" d="M285,287.5h-14.7v29.2H285V287.5z M283.5,315.2h-11.7V289h11.7V315.2z"/>
	<path class="st0" d="M145.5,260.2v-42.4h-9.8v11.4h-0.4v1h0.4v14.3h-0.4v1h0.4v14.8H145.5z M137.2,245.5h6.6v-1h-6.6v-14.3h6.6v-1
		h-6.6v-9.9h6.8v39.4h-6.8V245.5z"/>
	<path class="st0" d="M906,317.7h-36.3c0.1-0.2,0.2-0.4,0.2-0.7V302c0.6-0.2,1.1-0.3,1.7-0.5c3-1,6.1-2.3,8.9-4
		c6.3-3.8,10.8-9,12.4-15.8c2-8.5-0.4-18.8-8.2-31.3c-4.9-7.9-11.3-11.5-17.9-10.9c-5.5,0.4-10.7,3.7-13.2,7.9
		c-1.2,2-1.8,3.7-2.6,7.5c-0.2,1-0.3,1.4-0.5,1.9c-0.9,3.6-2,5.9-4.1,8.2c-9.7,10.5-5.3,20.9,7.9,30.2c2.8,2,5.8,3.8,8.8,5.4
		c1.1,0.5,2,1,2.9,1.4c0.3,0.1,0.6,0.3,0.8,0.4c0,0,0.1,0,0.1,0v14.7c0,0.2,0.1,0.5,0.2,0.7h-31.2v-34.6h-15.6
		c0.5-11.4,2.6-83.5-27.9-145C763.5,80,713.7,54.2,701,48.4v0c-0.1,0-0.1,0-0.2-0.1c-0.1,0-0.2-0.1-0.3-0.1
		c-0.1-0.1-0.2-0.1-0.3-0.2c-0.1,0-0.2-0.1-0.2-0.1c0,0-0.1,0-0.1-0.1l0,0c-1.2-0.5-1.8-0.8-1.8-0.8v225.5h-12.2V123.9v-1.5h-1.5
		H596h-1.5v1.5v148.7H582h-1.5v1.5v43.6h-25.6V91.5h22.6h0.5v11.6h50v-48h-50v11.5h-0.3h-22.8V4.1V0.4l-2.6,2.7l-21.9,23l-0.4,0.4
		v40.1H373l-1,0.4L349,89l-2.7,2.6h3.8h14v0.6v29.5l-3.8,0v-5.8v-1.5h-3v1.5v7.3v1.5l1.5,0l6.8,0l1.5,0v-1.5v-31v-0.6h163v226.2h-31
		V199.1h0v-3h-1.5H467v-17h30.6h1.5v-3h-1.5H467v-17h30.6h1.5v-3h-1.5H467v-17h30.6h1.5v-3h-1.5H467v-20v-1.5h-3v1.5v20h-47v-20
		v-1.5h-3v1.5v20h-0.5v3h0.5v17h-47v-18v-1.5h-3v1.5v18h-31.5H331v3h1.5H364v17h-31.5H331v3h1.5H364v17h-31.5H331v3h1.5H364v17
		h-31.5H331v3h1.5H364v17h-31.5H331v3h1.5H364v17h-31.5H331v3h1.5H365h1.5v-1.5h0.5v-1.5v-37h97.9h1.5v-1h0.6v-1.5v-17.5h29v118.6
		H331v-59.6v-1.5h-3v1.5v59.6h-26.2v-45.6v-1.5h-1.5h-13.8V57.1v-1.5H285h-88.3h-1.5v1.5v213.5h-10.8V161.7c0-0.8-0.7-1.5-1.5-1.5
		h-9.5v-6.5h3.2v-1h-3.2v-0.3h-0.7H75.8h-0.7v0.3h-0.4v1h0.4v6.5h-4.9c-0.8,0-1.5,0.7-1.5,1.5v156H38.4v-14.2
		c0.2-0.1,0.4-0.2,0.7-0.3c0.9-0.4,1.9-0.9,2.9-1.4c3-1.6,6-3.4,8.8-5.4c13.1-9.4,17.6-19.8,7.9-30.2c-2.1-2.3-3.2-4.6-4.1-8.2
		c-0.1-0.5-0.2-0.9-0.5-1.9c-0.9-3.7-1.4-5.4-2.6-7.5c-2.5-4.2-7.7-7.5-13.2-7.9c-6.7-0.5-13,3-17.9,10.9
		c-7.8,12.5-10.2,22.8-8.2,31.3c1.6,6.8,6.1,12,12.4,15.8c2.8,1.7,5.9,3,8.9,4c0.7,0.2,1.3,0.4,2,0.6v14.5H2.7c-1.2,0-2.2,1-2.2,2.2
		c0,1.2,1,2.2,2.2,2.2H328v0.4h3v-0.4h165v0.4h3v-0.4h407c1.2,0,2.2-1,2.2-2.2C908.3,318.7,907.3,317.7,906,317.7z M581,58.1h44v12
		h-44V58.1z M581,73.1h44v12h-44V73.1z M581,88.1h44v12h-44V88.1z M554.9,69.6h22.8h0.3v18.9h-0.5h-22.6V69.6z M414,216.1h-47v-17
		h47V216.1z M414,196.1h-47v-17h47V196.1z M414,176.1h-47v-17h47V176.1z M464,216.1h-47v-17h47V216.1z M464,196.1h-47v-17h47V196.1z
		 M464,176.1h-47v-17h47V176.1z M464,156.1h-47v-17h47V156.1z M36.9,262.6c-0.8,0-1.5,0.7-1.5,1.5v21.1l-9.6-9.5
		c-0.6-0.6-1.5-0.6-2.1,0c-0.6,0.6-0.6,1.5,0,2.1l11.1,11.1c0.2,0.2,0.3,0.3,0.5,0.3v12.4c-0.5-0.1-1-0.3-1.5-0.5
		c-2.9-0.9-5.9-2.2-8.6-3.9c-6-3.6-10.2-8.5-11.7-14.9c-1.9-8,0.4-18,8-30.1c4.7-7.5,10.5-10.7,16.6-10.2c5,0.4,9.8,3.4,12,7.2
		c1.1,1.8,1.6,3.4,2.5,7c0.2,1,0.3,1.4,0.5,2c1,3.8,2.2,6.3,4.5,8.8c8.9,9.6,4.9,19.1-7.6,28c-2.7,2-5.7,3.7-8.6,5.3
		c-1,0.5-2,1-2.8,1.4c0,0,0,0,0,0V284l10.7-10.6c0.6-0.6,0.6-1.5,0-2.1s-1.5-0.6-2.1,0l-8.6,8.5v-15.7
		C38.4,263.3,37.8,262.6,36.9,262.6z M76.6,154H172v6.2h-3.9V155h-1v5.3H163V155h-1v5.3h-4.1V155h-1v5.3h-4.1V155h-1v5.3h-4.1V155
		h-1v5.3h-4.1V155h-1v5.3h-4.1V155h-1v5.3h-4.1V155h-1v5.3h-4.1V155h-1v5.3h-4.1V155h-1v5.3h-4.1V155h-1v5.3H112V155h-1v5.3h-4.1
		V155h-1v5.3h-4.1V155h-1v5.3h-4.1V155h-1v5.3h-4.1V155h-1v5.3h-4.1V155h-1v5.3h-4.1V155h-1v5.3h-3.9V154z M181.4,270.7h-0.4v1.5
		v45.6H71.7V163.2h109.8V270.7z M198.2,58.6h85.3v211.3h-85.3V58.6z M298.8,317.7H184.4v-44.1h114.3V317.7z M530,88.5H353.8
		l16.7-15.9l0.5,0.5l6.2,6.2l-5.2,5.2l-1.1,1.1l2.1,2.1l1.1-1.1l5.2-5.2l5.2,5.2l1.1,1.1l2.1-2.1l-1.1-1.1l-5.2-5.2l6.2-6.2l1.1-1.1
		l-2.1-2.1l-1.1,1.1l-6.2,6.2l-6.2-6.2l-0.5-0.5l1-1H530V88.5z M552,317.7H533v-19.4l0.9,0.9l6.2,6.2l-5.2,5.2l-1.1,1.1l2.1,2.1
		l1.1-1.1l5.2-5.2l5.2,5.2l1.1,1.1l2.1-2.1l-1.1-1.1l-5.2-5.2l6.2-6.2l1.1-1.1l-2.1-2.1l-1.1,1.1l-6.2,6.2l-6.2-6.2L535,296l-2,2
		v-19.7l0.9,0.9l6.2,6.2l-5.2,5.2l-1.1,1.1l2.1,2.1l1.1-1.1l5.2-5.2l5.2,5.2l1.1,1.1l2.1-2.1l-1.1-1.1l-5.2-5.2l6.2-6.2l1.1-1.1
		l-2.1-2.1l-1.1,1.1l-6.2,6.2l-6.2-6.2L535,276l-2,2v-19.7l0.9,0.9l6.2,6.2l-5.2,5.2l-1.1,1.1l2.1,2.1l1.1-1.1l5.2-5.2l5.2,5.2
		l1.1,1.1l2.1-2.1l-1.1-1.1l-5.2-5.2l6.2-6.2l1.1-1.1l-2.1-2.1l-1.1,1.1l-6.2,6.2l-6.2-6.2L535,256l-2,2v-19.7l0.9,0.9l6.2,6.2
		l-5.2,5.2l-1.1,1.1l2.1,2.1l1.1-1.1l5.2-5.2l5.2,5.2l1.1,1.1l2.1-2.1l-1.1-1.1l-5.2-5.2l6.2-6.2l1.1-1.1l-2.1-2.1l-1.1,1.1
		l-6.2,6.2l-6.2-6.2L535,236l-2,2v-19.7l0.9,0.9l6.2,6.2l-5.2,5.2l-1.1,1.1l2.1,2.1l1.1-1.1l5.2-5.2l5.2,5.2l1.1,1.1l2.1-2.1
		l-1.1-1.1l-5.2-5.2l6.2-6.2l1.1-1.1l-2.1-2.1l-1.1,1.1l-6.2,6.2l-6.2-6.2L535,216l-2,2v-19.7l0.9,0.9l6.2,6.2l-5.2,5.2l-1.1,1.1
		l2.1,2.1l1.1-1.1l5.2-5.2l5.2,5.2l1.1,1.1l2.1-2.1l-1.1-1.1l-5.2-5.2l6.2-6.2l1.1-1.1l-2.1-2.1l-1.1,1.1l-6.2,6.2l-6.2-6.2L535,196
		l-2,2v-19.7l0.9,0.9l6.2,6.2l-5.2,5.2l-1.1,1.1l2.1,2.1l1.1-1.1l5.2-5.2l5.2,5.2l1.1,1.1l2.1-2.1l-1.1-1.1l-5.2-5.2l6.2-6.2
		l1.1-1.1l-2.1-2.1l-1.1,1.1l-6.2,6.2l-6.2-6.2L535,176l-2,2v-19.7l0.9,0.9l6.2,6.2l-5.2,5.2l-1.1,1.1l2.1,2.1l1.1-1.1l5.2-5.2
		l5.2,5.2l1.1,1.1l2.1-2.1l-1.1-1.1l-5.2-5.2l6.2-6.2l1.1-1.1l-2.1-2.1l-1.1,1.1l-6.2,6.2l-6.2-6.2L535,156l-2,2v-19.7l0.9,0.9
		l6.2,6.2l-5.2,5.2l-1.1,1.1l2.1,2.1l1.1-1.1l5.2-5.2l5.2,5.2l1.1,1.1l2.1-2.1l-1.1-1.1l-5.2-5.2l6.2-6.2l1.1-1.1l-2.1-2.1l-1.1,1.1
		l-6.2,6.2l-6.2-6.2L535,136l-2,2v-19.7l0.9,0.9l6.2,6.2l-5.2,5.2l-1.1,1.1l2.1,2.1l1.1-1.1l5.2-5.2l5.2,5.2l1.1,1.1l2.1-2.1
		l-1.1-1.1l-5.2-5.2l6.2-6.2l1.1-1.1l-2.1-2.1l-1.1,1.1l-6.2,6.2l-6.2-6.2L535,116l-2,2V98.3l0.9,0.9l6.2,6.2l-5.2,5.2l-1.1,1.1
		l2.1,2.1l1.1-1.1l5.2-5.2l5.2,5.2l1.1,1.1l2.1-2.1l-1.1-1.1l-5.2-5.2l6.2-6.2l1.1-1.1l-2.1-2.1l-1.1,1.1l-6.2,6.2l-6.2-6.2L535,96
		l-2,2v-6.4H552V317.7z M552,88.5H533V72.3l0.9,0.9l6.2,6.2l-5.2,5.2l-1.1,1.1l2.1,2.1l1.1-1.1l5.2-5.2l5.2,5.2l1.1,1.1l2.1-2.1
		l-1.1-1.1l-5.2-5.2l6.2-6.2l1.1-1.1l-2.1-2.1l-1.1,1.1l-6.2,6.2l-6.2-6.2L535,70l-2,2v-2.3H552V88.5z M552,66.6H533V48.3l0.9,0.9
		l6.2,6.2l-5.2,5.2l-1.1,1.1l2.1,2.1l1.1-1.1l5.2-5.2l5.2,5.2l1.1,1.1l2.1-2.1l-1.1-1.1l-5.2-5.2l6.2-6.2l1.1-1.1l-2.1-2.1l-1.1,1.1
		l-6.2,6.2l-6.2-6.2L535,46l-2,2V28.3l0.9,0.9l6.2,6.2l-5.2,5.2l-1.1,1.1l2.1,2.1l1.1-1.1l5.2-5.2l5.2,5.2l1.1,1.1l2.1-2.1l-1.1-1.1
		l-5.2-5.2l6.2-6.2l1.1-1.1l-2.1-2.1l-1.1,1.1l-6.2,6.2l-6.2-6.2L535,26l-2,2v-0.2L552,7.9V66.6z M597.5,144.9h71v13h-71V144.9z
		 M597.5,167.9h71v13h-71V167.9z M597.5,191.9h71v13h-71V191.9z M597.5,217.9h71v13h-71V217.9z M597.5,232.4h71.7h0.7v-0.7v-14.5
		v-0.7h-0.7h-71.7v-10h71.7h0.7v-0.7v-14.5v-0.7h-0.7h-71.7v-8h71.7h0.7v-0.7v-14.5v-0.7h-0.7h-71.7v-7h71.7h0.7v-0.7v-14.5v-0.7
		h-0.7h-71.7v-18h85.3v120.7H669v19.4h13.8v7h-85.3V232.4z M682.2,247.6V264h-11.7v-16.4H682.2z M698,283.1v1.6v33H583.5v-42.1H698
		V283.1z M701,51.7c0.2,0.1,0.4,0.2,0.7,0.3c3.9,1.9,8.2,4.1,12.8,6.9c13.3,7.9,26.6,18,39,30.4c14.4,14.4,26.7,31.1,36.1,50.1
		c4.3,8.7,8.1,17.9,11.4,27.5c7.7,22.5,12.5,46.6,14.8,71c1.6,16.7,1.9,31.5,1.5,43.2c0,0.2,0,0.3,0,0.5H701.2v-7.6v-1.5H701V51.7z
		 M723.4,316.1h-10.6v-15.2c0-2.8,2.4-5,5.3-5c2.9,0,5.3,2.3,5.3,5V316.1z M756.4,316.1h-10.6v-15.2c0-2.8,2.4-5,5.3-5
		c2.9,0,5.3,2.3,5.3,5V316.1z M788.4,316.1h-10.6v-15.2c0-2.8,2.4-5,5.3-5c2.9,0,5.3,2.3,5.3,5V316.1z M821.4,316.1h-10.6v-15.2
		c0-2.8,2.4-5,5.3-5c2.9,0,5.3,2.3,5.3,5V316.1z M832.9,316.1h-10v-15.2c0-3.6-3.1-6.5-6.8-6.5c-3.8,0-6.8,2.9-6.8,6.5v15.2h-19.4
		v-15.2c0-3.6-3.1-6.5-6.8-6.5c-3.8,0-6.8,2.9-6.8,6.5v15.2h-18.4v-15.2c0-3.6-3.1-6.5-6.8-6.5c-3.8,0-6.8,2.9-6.8,6.5v15.2h-19.4
		v-15.2c0-3.6-3.1-6.5-6.8-6.5c-3.8,0-6.8,2.9-6.8,6.5v15.2h-10.1v-30h131.7V316.1z M868.4,261.3c-0.8,0-1.5,0.7-1.5,1.5v16
		l-8.8-8.8c-0.6-0.6-1.5-0.6-2.1,0c-0.6,0.6-0.6,1.5,0,2.1l10.9,10.9v17.7c-0.1,0-0.2-0.1-0.3-0.1c-0.9-0.4-1.8-0.9-2.8-1.4
		c-2.9-1.5-5.9-3.3-8.6-5.3c-12.5-8.9-16.6-18.4-7.6-28c2.3-2.5,3.5-5,4.5-8.8c0.1-0.5,0.2-0.9,0.5-2c0.9-3.6,1.4-5.2,2.5-7
		c2.2-3.8,7-6.8,12-7.2c6.1-0.5,11.9,2.8,16.6,10.2c7.6,12.1,9.9,22.1,8,30.1c-1.5,6.4-5.7,11.3-11.7,14.9c-2.7,1.6-5.7,2.9-8.6,3.9
		c-0.4,0.1-0.9,0.3-1.3,0.4v-12.1c0.1,0,0.1-0.1,0.2-0.1l11.1-11.1c0.6-0.6,0.6-1.5,0-2.1c-0.6-0.6-1.5-0.6-2.1,0l-9.2,9.1v-21.3
		C869.9,262,869.2,261.3,868.4,261.3z"/>
</g>
</svg>
