<?xml version="1.0" encoding="UTF-8" standalone="no"?>
<svg width="743px" height="252px" viewBox="0 0 743 252" version="1.1" xmlns="http://www.w3.org/2000/svg" xmlns:xlink="http://www.w3.org/1999/xlink">
    <!-- Generator: Sketch 39.1 (31720) - http://www.bohemiancoding.com/sketch -->
    <title>Group</title>
    <desc>Created with Sketch.</desc>
    <defs></defs>
    <g id="Page-1" stroke="none" stroke-width="1" fill="none" fill-rule="evenodd">
        <g id="search-4.5" transform="translate(-339.000000, -350.000000)" fill="#4A4A4A">
            <g id="Group" transform="translate(339.000000, 350.000000)">
                <path d="M295.161016,194.947595 C296.030552,194.947595 295.161024,194.242982 295.161024,193.373798 C295.161024,192.504613 298.712989,191.98284 297.843453,191.98284 L1.57443346,191.8 C0.704897871,191.8 0,192.504613 0,193.373798 C0,194.242982 0.704897871,194.947596 1.57443346,194.947596 L295.161016,194.947595 Z" id="Path-168-Copy-4"></path>
                <path d="M463.76105,195.647596 L741.101933,195.647596 C741.971468,195.647596 742.676366,194.942982 742.676366,194.073798 C742.676366,193.204613 741.971468,192.5 741.101933,192.5 L463.76105,192.5 C462.891514,192.5 462.186616,193.204613 462.186616,194.073798 C462.186616,194.942982 462.891514,195.647596 463.76105,195.647596 L463.76105,195.647596 Z" id="Path-168-Copy-5"></path>
                <path d="M415.721317,105.796747 L415.721317,105.796747 L417.161142,105.645193 L397.855899,129.520179 L397.704567,128.07824 L433.316183,156.958291 L431.876357,157.109845 L451.1816,133.234858 L451.332932,134.676798 L415.721317,105.796747 Z M416.365564,105 L451.977179,133.880051 L432.671936,157.755038 L397.06032,128.874987 L416.365564,105 L416.365564,105 Z" id="Rectangle-2097" stroke="#4A4A4A" stroke-linecap="round" stroke-linejoin="round"></path>
                <path d="M376.314329,128.425221 C379.444493,128.425221 380.197412,128.425221 384.337864,128.425221 C388.993722,128.425221 388.993722,128.425221 392.435008,128.425221 C393.852009,128.425221 394.432107,128.298 394.432107,128.298 C394.432107,131.026054 385.355696,134.652108 373.811576,134.652108 C362.77976,134.652108 354.25192,131.542518 353.163077,128.425221 C353.219753,128.425221 353.275194,128.425221 353.328365,128.425221 C353.610105,128.425221 353.828075,128.425221 353.828075,128.425221 C353.828075,128.425221 355.877665,128.425221 358.781251,128.425221 C364.383879,128.425221 365.392011,128.425221 370.094734,128.425221 C370.087046,128.508406 370.082268,128.587081 370.082268,128.654141 C370.082268,129.571455 370.650219,130.407251 371.571485,131.176254 C371.876726,131.431046 372.201519,131.660788 372.526255,131.862915 C372.722167,131.984857 372.87666,132.071648 372.969744,132.119706 C373.116905,132.195684 373.291674,132.195684 373.438835,132.119706 C373.531919,132.071648 373.686413,131.984857 373.882324,131.862915 C374.207061,131.660788 374.531853,131.431046 374.837094,131.176254 C375.75836,130.407251 376.326311,129.571455 376.326311,128.654141 C376.326311,128.587961 376.321632,128.508671 376.314329,128.425221 Z M395.673866,127.4 C395.673866,127.4 351.949285,127.4 351.949285,127.4 C351.949285,127.858769 351.391829,128.65685 351.581181,129.095239 C351.618166,129.180865 352.045378,129.609091 352.089241,129.693809 C352.334933,130.168345 352.914967,129.900533 353.365952,130.343189 C356.532226,133.450993 364.50978,135.677329 373.811576,135.677329 C385.885785,135.677329 395.673866,131.971443 395.673866,127.4 Z" id="Combined-Shape" stroke="#4A4A4A" stroke-linecap="round" stroke-linejoin="round" transform="translate(373.607904, 131.538664) scale(-1, 1) translate(-373.607904, -131.538664) "></path>
                <path d="M422.53299,128.425221 C425.663155,128.425221 426.416074,128.425221 430.556525,128.425221 C435.212383,128.425221 435.212383,128.425221 438.65367,128.425221 C440.07067,128.425221 440.650769,128.298 440.650769,128.298 C440.650769,131.026054 431.574358,134.652108 420.030237,134.652108 C408.998422,134.652108 400.470582,131.542518 399.381738,128.425221 C399.438415,128.425221 399.493856,128.425221 399.547026,128.425221 C399.828767,128.425221 400.046737,128.425221 400.046737,128.425221 C400.046737,128.425221 402.096327,128.425221 404.999912,128.425221 C410.602541,128.425221 411.610672,128.425221 416.313396,128.425221 C416.305708,128.508406 416.30093,128.587081 416.30093,128.654141 C416.30093,129.571455 416.868881,130.407251 417.790147,131.176254 C418.095388,131.431046 418.42018,131.660788 418.744917,131.862915 C418.940829,131.984857 419.095322,132.071648 419.188406,132.119706 C419.335567,132.195684 419.510336,132.195684 419.657497,132.119706 C419.750581,132.071648 419.905074,131.984857 420.100986,131.862915 C420.425723,131.660788 420.750515,131.431046 421.055756,131.176254 C421.977022,130.407251 422.544973,129.571455 422.544973,128.654141 C422.544973,128.587961 422.540294,128.508671 422.53299,128.425221 Z M441.892528,127.4 C441.892528,127.4 398.167946,127.4 398.167946,127.4 C398.167946,127.858769 397.61049,128.65685 397.799843,129.095239 C397.836827,129.180865 398.26404,129.609091 398.307903,129.693809 C398.553594,130.168345 399.133629,129.900533 399.584614,130.343189 C402.750888,133.450993 410.728442,135.677329 420.030237,135.677329 C432.104447,135.677329 441.892528,131.971443 441.892528,127.4 Z" id="Combined-Shape" stroke="#4A4A4A" stroke-linecap="round" stroke-linejoin="round"></path>
                <path d="M377.993845,105.796747 L377.993845,105.796747 L342.38223,134.676798 L342.533562,133.234858 L361.838805,157.109845 L360.398979,156.958291 L396.010595,128.07824 L395.859263,129.520179 L376.55402,105.645193 L377.993845,105.796747 Z M377.349599,105 L377.349599,105 L396.654842,128.874987 L361.043226,157.755038 L341.737983,133.880051 L377.349599,105 Z" id="Rectangle-2097" stroke="#4A4A4A" stroke-linecap="round" stroke-linejoin="round"></path>
                <path d="M460.615328,158.23825 L460.615328,133.06763 C460.615328,121.912885 457.409258,113.071788 451.148775,108.28616 L451.334181,108.566914 L439.467888,61.9862266 C439.3696,61.6004015 438.888774,61.4692167 438.608657,61.7518008 L407.077719,93.560448 L407.461407,93.4093905 C407.414933,93.4075315 407.326504,93.404054 407.200401,93.3991893 C406.990354,93.3910862 406.751205,93.3820583 406.487235,93.3723367 C405.733098,93.3445632 404.931106,93.3167902 404.115496,93.2908669 C403.40851,93.2683961 402.723212,93.2483539 402.071197,93.231368 C400.610651,93.1933186 399.382855,93.1722358 398.462056,93.1722358 C395.475718,93.1722358 391.640753,93.4080314 387.154182,93.8362639 C384.839701,94.0571756 382.401581,94.324729 379.886937,94.6288376 C377.255264,94.9470991 374.679912,95.2880647 372.267187,95.6290415 C371.422639,95.7483967 370.658678,95.8592381 369.988602,95.9587286 C369.753966,95.9935665 369.547793,96.0245024 369.371744,96.0511815 C369.26595,96.0672141 369.193608,96.0782804 369.156381,96.0840258 L369.403148,96.1067234 L326.944672,81.2527662 C326.677796,81.1594003 326.385872,81.3003761 326.292643,81.5676445 C326.199414,81.8349129 326.340183,82.1272648 326.60706,82.2206307 L369.065536,97.0745879 C369.144694,97.1022811 369.229433,97.1100753 369.312303,97.0972855 C369.348623,97.0916802 369.420047,97.0807543 369.524912,97.0648626 C369.699962,97.0383348 369.905125,97.0075506 370.138736,96.9728647 C370.80651,96.873716 371.568115,96.7632164 372.410234,96.6442045 C374.816559,96.3041322 377.385248,95.9640488 380.009667,95.6466645 C382.516238,95.3435322 384.945956,95.0769008 387.25131,94.8568603 C391.70837,94.4314445 395.513928,94.197457 398.462056,94.197457 C399.372226,94.197457 400.592149,94.2184047 402.044575,94.2562425 C402.694517,94.2731744 403.37789,94.2931603 404.083022,94.3155722 C404.896793,94.3414371 405.697098,94.3691516 406.449614,94.3968654 C406.712972,94.4065645 406.951529,94.41557 407.160996,94.4236507 C407.286602,94.4284963 407.374548,94.4319547 407.420548,94.4337949 C407.563933,94.4395306 407.703137,94.384726 407.804235,94.2827373 L439.335173,62.4740901 L438.475942,62.2396644 L450.342235,108.820352 C450.37072,108.932169 450.436045,109.031089 450.527641,109.101106 C456.494645,113.662393 459.59161,122.20262 459.59161,133.06763 L459.59161,158.23825 C459.59161,158.521357 459.820777,158.750861 460.103469,158.750861 C460.386161,158.750861 460.615328,158.521357 460.615328,158.23825 L460.615328,158.23825 Z M322.163405,89.2516386 L335.280599,123.925054 L335.247398,123.743442 L335.247398,166.100065 C335.247398,166.383172 335.476565,166.612676 335.759257,166.612676 C336.041949,166.612676 336.271116,166.383172 336.271116,166.100065 L336.271116,123.743442 C336.271116,123.681392 336.259867,123.619856 336.237915,123.561831 L323.120722,88.8884151 C323.020567,88.6236714 322.725074,88.4903646 322.460718,88.590666 C322.196362,88.6909674 322.063251,88.9868949 322.163405,89.2516386 L322.163405,89.2516386 Z" id="Combined-Shape-Copy-19" stroke="#4A4A4A" stroke-linecap="round" stroke-linejoin="round"></path>
                <path d="M409.379068,149.23832 L409.379015,149.238139 C409.378936,149.237873 409.378936,149.237873 409.378909,149.23778 C409.378776,149.237331 409.378776,149.237331 409.37865,149.236904 C409.378371,149.235966 409.378371,149.235966 409.378023,149.2348 C409.377223,149.232129 409.377223,149.232129 409.376143,149.22856 C409.373556,149.220083 409.373556,149.220083 409.369818,149.208094 C409.360587,149.178934 409.355566,149.163429 409.346528,149.136406 C409.321459,149.061452 409.290799,148.975517 409.25425,148.879507 C409.151306,148.609088 409.021239,148.309405 408.861609,147.987718 C408.407449,147.072499 407.80595,146.158365 407.036942,145.304529 C404.839979,142.865222 401.742636,141.4 397.627921,141.4 C393.513206,141.4 390.415863,142.865222 388.2189,145.304529 C387.449892,146.158365 386.848393,147.072499 386.394233,147.987718 C386.119493,148.541372 385.953441,148.977568 385.876774,149.23832 C385.796924,149.509899 385.952028,149.794883 386.223208,149.87485 C386.494389,149.954817 386.778955,149.799485 386.858805,149.527907 C386.872306,149.481986 386.904697,149.385142 386.958152,149.244723 C387.049615,149.004464 387.16652,148.735105 387.310987,148.443977 C387.725677,147.608296 388.276268,146.771532 388.979078,145.991195 C390.987309,143.761438 393.811948,142.425221 397.627921,142.425221 C401.443894,142.425221 404.268533,143.761438 406.276764,145.991195 C406.979574,146.771532 407.530164,147.608296 407.944855,148.443976 C408.089322,148.735105 408.206227,149.004464 408.297689,149.244723 C408.329182,149.327451 408.355135,149.400191 408.375816,149.462027 C408.382791,149.48288 408.386777,149.495189 408.393131,149.515272 C408.39547,149.522776 408.39547,149.522776 408.396709,149.526838 C408.397125,149.528213 408.397125,149.528213 408.397272,149.528705 C408.397296,149.528784 408.397296,149.528784 408.397253,149.52864 C408.397219,149.528526 408.397219,149.528526 408.397169,149.528354 C408.397141,149.528261 408.397141,149.528261 408.397123,149.5282 L408.397084,149.528066 C408.476887,149.799485 408.761453,149.954817 409.032633,149.87485 C409.303814,149.794883 409.458918,149.509899 409.379068,149.23832 L409.379068,149.23832 Z" id="Oval-161-Copy" stroke="#4A4A4A" stroke-linecap="round" stroke-linejoin="round"></path>
                <path d="M397.866868,139.196523 L402.053221,136.021249 C402.444381,135.724561 402.234869,135.1 401.744184,135.1 L393.371479,135.1 C392.880794,135.1 392.671282,135.724561 393.062442,136.021249 L397.248795,139.196523 C397.431567,139.335153 397.684096,139.335153 397.866868,139.196523 L397.866868,139.196523 Z M397.248795,138.379247 L397.866868,138.379247 L393.680516,135.203972 L393.371479,136.125221 L401.744184,136.125221 L401.435147,135.203972 L397.248795,138.379247 L397.248795,138.379247 Z" id="Oval-161-Copy-2" stroke="#4A4A4A" stroke-linecap="round" stroke-linejoin="round"></path>
                <path d="M436.657311,69.2341512 C436.72247,69.5019437 436.72247,69.5019437 437.015683,70.7070102 C437.406634,72.3137656 437.406634,72.3137656 437.96048,74.5900024 C439.263649,79.9458537 439.263649,79.9458537 440.827452,86.3728755 C442.391255,92.7998981 442.391255,92.7998981 443.694424,98.1557504 C444.248271,100.431988 444.248271,100.431988 444.639221,102.038744 C444.932434,103.24381 444.932434,103.24381 444.997592,103.511603 L445.808947,102.985455 C445.768185,102.953737 445.691321,102.895148 445.580339,102.812409 C445.396957,102.675693 445.183442,102.520288 444.941773,102.348918 C444.252835,101.860381 443.475193,101.34078 442.624604,100.811883 C440.191399,99.2989186 437.657798,98.0124969 435.146695,97.1274662 C434.516196,96.9052488 433.862307,96.6969689 433.187226,96.5021364 C430.761525,95.8020652 428.167523,95.3010024 425.574249,94.9650882 C424.667065,94.8475781 423.82444,94.7590518 423.067666,94.6954196 C422.802251,94.6731025 422.566331,94.655484 422.362574,94.6420557 C422.239394,94.6339377 422.15373,94.6289954 422.108251,94.6267216 L422.52551,95.3958678 L437.597401,69.3699654 L436.657311,69.2341512 L436.657311,69.2341512 Z M437.651927,68.9914334 C437.542745,68.5427103 436.943206,68.4560952 436.711838,68.8556191 L421.639947,94.8815214 C421.447698,95.2134945 421.674483,95.6315328 422.057207,95.6506676 C422.097374,95.6526758 422.17765,95.6573072 422.295351,95.6650642 C422.493062,95.6780941 422.722846,95.6952543 422.982016,95.7170462 C423.724056,95.7794396 424.551538,95.8663749 425.442932,95.9818398 C427.98845,96.311568 430.533239,96.8031247 432.903744,97.4872663 C433.560347,97.6767655 434.195484,97.8790726 434.806849,98.0945463 C437.239543,98.951942 439.709624,100.206112 442.084608,101.682875 C442.916884,102.200384 443.677467,102.708587 444.350189,103.185625 C444.585102,103.352205 444.792056,103.502834 444.96904,103.634779 C445.074278,103.713237 445.145551,103.767565 445.180853,103.795033 C445.563639,104.092883 446.10697,103.740543 445.992208,103.268886 C445.92705,103.001093 445.92705,103.001093 445.633837,101.796026 C445.242886,100.18927 445.242886,100.18927 444.689039,97.9130327 C443.38587,92.5571803 443.38587,92.5571803 441.822067,86.1301578 C440.258265,79.703136 440.258265,79.703136 438.955096,74.3472846 C438.401249,72.0710478 438.401249,72.0710478 438.010298,70.4642925 C437.717085,69.2592259 437.717085,69.2592259 437.651927,68.9914334 L437.651927,68.9914334 Z" id="Path-15725-Copy" stroke="#4A4A4A" stroke-linecap="round" stroke-linejoin="round"></path>
                <path d="M338.249412,116.75771 L328.021683,90.6267153 L327.366718,91.2942534 C327.596656,91.3798858 327.596656,91.3798858 328.631374,91.7652314 C330.010997,92.2790256 330.010997,92.2790256 331.965465,93.0069006 C336.564211,94.7195479 336.564211,94.7195479 342.082706,96.7747246 C347.601202,98.8299012 347.601202,98.8299012 352.199948,100.542548 C354.154415,101.270423 354.154415,101.270423 355.534039,101.784218 C356.094511,101.992947 356.094511,101.992947 356.468159,102.132099 C356.617259,102.187626 356.617259,102.187626 356.714264,102.223752 C356.752662,102.238052 356.752662,102.238052 356.777362,102.247251 C356.787102,102.250878 356.787102,102.250878 356.793333,102.253199 C356.795785,102.254112 356.795785,102.254112 356.79735,102.254695 C356.797966,102.254924 356.797966,102.254924 356.798358,102.255071 C356.798512,102.255128 356.798512,102.255128 356.798611,102.255165 C356.79865,102.255179 356.79865,102.255179 356.798675,102.255189 L356.798699,102.255198 L356.827634,101.284462 C356.794315,101.29465 356.732014,101.314201 356.642653,101.343012 C356.49514,101.390572 356.324431,101.447177 356.132449,101.512726 C355.585402,101.699504 354.976445,101.920786 354.320938,102.175766 C352.447648,102.904444 350.574002,103.757995 348.822159,104.730997 C347.259946,105.598675 345.868501,106.522328 344.691853,107.501665 C343.801342,108.242847 342.949768,109.058258 342.137626,109.935734 C340.767001,111.416622 339.571302,113.001485 338.556203,114.586621 C338.200616,115.141892 337.892743,115.65801 337.633404,116.122017 C337.542206,116.285187 337.463471,116.43044 337.397303,116.556157 C337.356966,116.632796 337.329418,116.686642 337.314767,116.716073 L338.249412,116.75771 L338.249412,116.75771 Z M337.296299,117.131856 C337.458195,117.545488 338.033014,117.571095 338.230944,117.173493 C338.242196,117.150888 338.266228,117.103915 338.302919,117.034204 C338.365131,116.916003 338.439767,116.778311 338.526706,116.622762 C338.776327,116.176144 339.073738,115.677563 339.417933,115.140082 C340.402213,113.603072 341.562015,112.065789 342.888425,110.632673 C343.671413,109.786696 344.491064,109.001852 345.346179,108.29013 C346.469354,107.355299 347.808753,106.466195 349.318668,105.627564 C351.026001,104.679283 352.858615,103.844425 354.691586,103.131431 C355.333271,102.881827 355.928848,102.665407 356.462794,102.483102 C356.649159,102.419471 356.81433,102.364702 356.956369,102.318907 C357.040739,102.291706 357.098119,102.273699 357.126571,102.264999 C357.594843,102.121818 357.61442,101.465171 357.155511,101.294266 L357.155484,101.294256 C357.155464,101.294248 357.155464,101.294248 357.155425,101.294234 C357.155328,101.294198 357.155328,101.294198 357.155174,101.29414 C357.154782,101.293994 357.154782,101.293994 357.154167,101.293765 C357.152602,101.293183 357.152602,101.293183 357.15015,101.292269 C357.143919,101.289949 357.143919,101.289949 357.134179,101.286321 C357.109479,101.277123 357.109479,101.277123 357.071081,101.262823 C356.974076,101.226697 356.974076,101.226697 356.824976,101.171169 C356.451328,101.032017 356.451328,101.032017 355.890856,100.823288 C354.511232,100.309494 354.511232,100.309494 352.556765,99.5816187 C347.958019,97.8689715 347.958019,97.8689715 342.439523,95.8137948 C336.921028,93.7586182 336.921028,93.7586182 332.322282,92.0459709 C330.367815,91.3180959 330.367815,91.3180959 328.988191,90.8043017 C327.953473,90.4189561 327.953473,90.4189561 327.723536,90.3333237 C327.308905,90.1789084 326.90713,90.5883954 327.068571,91.0008618 L337.296299,117.131856 L337.296299,117.131856 Z" id="Path-15727-Copy" stroke="#4A4A4A" stroke-linecap="round" stroke-linejoin="round"></path>
                <path d="M314.301418,176.059006 C286.342154,137.266126 289.57459,82.9928569 324.157403,48.3161226 C362.561313,9.80791321 425.066333,10.0653407 463.766398,48.8705089 C502.466113,87.6753266 502.722838,150.349001 464.319282,188.856855 C426.214244,227.065381 364.38176,227.109296 325.618119,189.201447 L326.355629,188.489727 C364.721397,225.985125 425.895402,225.934303 463.594954,188.132365 C501.597989,150.026119 501.34392,88.0008714 463.042069,49.5949983 C424.740568,11.1894758 362.884413,10.9347207 324.881731,49.0406119 C290.702507,83.3126617 287.468956,136.932479 315.028794,175.315997 L314.301418,176.059006 Z" id="Combined-Shape" stroke="#4A4A4A" stroke-linecap="round" stroke-linejoin="round"></path>
                <path d="M337.558743,175.883736 C369.121182,207.531894 420.041966,207.773758 451.292729,176.438123 C482.543137,145.102843 482.301933,94.0448663 450.739844,62.3970591 C419.177405,30.7489018 368.256621,30.5070375 337.005858,61.8426728 C305.75545,93.1779526 305.996654,144.235929 337.558743,175.883736 Z M338.283072,175.159247 C307.118645,143.910182 306.880505,93.5006279 337.730187,62.5671621 C368.579515,31.6340517 418.851438,31.8728341 450.015515,63.1215485 C481.179942,94.3706131 481.418082,144.780168 450.5684,175.713633 C419.719072,206.646744 369.447149,206.407962 338.283072,175.159247 Z" id="Combined-Shape" stroke="#4A4A4A" stroke-linecap="round" stroke-linejoin="round"></path>
                <path d="M313.945108,175.00862 C313.850206,175.10378 313.75763,175.196608 313.686238,175.268194 C293.867708,195.140548 254.230648,234.885256 254.230648,234.885256 C250.458461,238.667687 250.458461,244.799956 254.230648,248.582387 C258.003186,252.365171 264.119943,252.365171 267.892481,248.582387 L326.445917,189.869928 L325.73525,189.131741 L267.168153,247.857897 C263.795504,251.239705 258.327625,251.239705 254.954977,247.857897 C251.581976,244.475737 251.581976,238.991906 254.954977,235.609746 L314.569462,175.833356 L313.953705,175 Z" id="Combined-Shape" stroke="#4A4A4A" stroke-linecap="round" stroke-linejoin="round"></path>
                <path d="M570.575756,77.3972128 L653.160406,77.3972128 L651.914528,76.1486064 L651.914528,192.295548 L653.160406,191.046941 L570.575756,191.04694 L571.821634,192.295547 L571.821634,76.1486064 L570.575756,77.3972128 L570.575756,77.3972128 Z M570.575756,74.9 C569.887676,74.9 569.329877,75.4590201 569.329877,76.1486064 L569.329877,192.295547 C569.329877,192.985133 569.887676,193.544153 570.575756,193.544153 L653.160406,193.544154 C653.848486,193.544154 654.406284,192.985134 654.406284,192.295548 L654.406284,76.1486064 C654.406284,75.4590201 653.848486,74.9 653.160406,74.9 L570.575756,74.9 L570.575756,74.9 Z" id="Rectangle-58-Copy"></path>
                <polygon id="Path-175-Copy-4" points="579.834119 106.248606 644.465585 106.248606 644.465585 105 579.834119 105"></polygon>
                <polygon id="Path-175-Copy-7" points="579.834119 155.948606 644.465585 155.948606 644.465585 154.7 579.834119 154.7"></polygon>
                <polygon id="Path-175-Copy-8" points="579.834119 112.548606 644.465585 112.548606 644.465585 111.3 579.834119 111.3"></polygon>
                <polygon id="Path-175-Copy-9" points="579.834119 165.048606 596.889644 165.048606 596.889644 163.8 579.834119 163.8"></polygon>
                <polygon id="Path-175-Copy-10" points="627.453346 165.048606 644.508872 165.048606 644.508872 163.8 627.453346 163.8"></polygon>
                <path d="M581.934967,86.6486064 L581.934967,86.6486064 L583.180845,85.4 L583.180845,99.6950082 L581.934967,98.4464018 L589.116241,98.4464018 L587.870363,99.6950082 L587.870363,85.4 L589.116241,86.6486064 L581.934967,86.6486064 Z M581.934967,85.4 L589.116241,85.4 L589.116241,99.6950082 L581.934967,99.6950082 L581.934967,85.4 L581.934967,85.4 Z" id="Rectangle-59-Copy-42"></path>
                <path d="M581.934967,139.148606 L581.934967,139.148606 L583.180845,137.9 L583.180845,152.195008 L581.934967,150.946402 L589.116241,150.946402 L587.870363,152.195008 L587.870363,137.9 L589.116241,139.148606 L581.934967,139.148606 Z M581.934967,137.9 L589.116241,137.9 L589.116241,152.195008 L581.934967,152.195008 L581.934967,137.9 L581.934967,137.9 Z" id="Rectangle-59-Copy-43"></path>
                <path d="M581.934967,171.348606 L581.934967,171.348606 L583.180845,170.1 L583.180845,184.395008 L581.934967,183.146402 L589.116241,183.146402 L587.870363,184.395008 L587.870363,170.1 L589.116241,171.348606 L581.934967,171.348606 Z M581.934967,170.1 L589.116241,170.1 L589.116241,184.395008 L581.934967,184.395008 L581.934967,170.1 L581.934967,170.1 Z" id="Rectangle-59-Copy-44"></path>
                <path d="M581.934967,118.848606 L581.934967,118.848606 L583.180845,117.6 L583.180845,131.895008 L581.934967,130.646402 L589.116241,130.646402 L587.870363,131.895008 L587.870363,117.6 L589.116241,118.848606 L581.934967,118.848606 Z M581.934967,117.6 L589.116241,117.6 L589.116241,131.895008 L581.934967,131.895008 L581.934967,117.6 L581.934967,117.6 Z" id="Rectangle-59-Copy-45"></path>
                <path d="M595.240339,86.6486064 L595.240339,86.6486064 L596.486217,85.4 L596.486217,99.6950082 L595.240339,98.4464018 L602.421613,98.4464018 L601.175735,99.6950082 L601.175735,85.4 L602.421613,86.6486064 L595.240339,86.6486064 Z M595.240339,85.4 L602.421613,85.4 L602.421613,99.6950082 L595.240339,99.6950082 L595.240339,85.4 L595.240339,85.4 Z" id="Rectangle-59-Copy-46"></path>
                <path d="M595.240339,139.148606 L595.240339,139.148606 L596.486217,137.9 L596.486217,152.195008 L595.240339,150.946402 L602.421613,150.946402 L601.175735,152.195008 L601.175735,137.9 L602.421613,139.148606 L595.240339,139.148606 Z M595.240339,137.9 L602.421613,137.9 L602.421613,152.195008 L595.240339,152.195008 L595.240339,137.9 L595.240339,137.9 Z" id="Rectangle-59-Copy-47"></path>
                <path d="M595.240339,118.848606 L595.240339,118.848606 L596.486217,117.6 L596.486217,131.895008 L595.240339,130.646402 L602.421613,130.646402 L601.175735,131.895008 L601.175735,117.6 L602.421613,118.848606 L595.240339,118.848606 Z M595.240339,117.6 L602.421613,117.6 L602.421613,131.895008 L595.240339,131.895008 L595.240339,117.6 L595.240339,117.6 Z" id="Rectangle-59-Copy-48"></path>
                <path d="M607.845429,86.6486064 L607.845429,86.6486064 L609.091307,85.4 L609.091307,99.6950082 L607.845429,98.4464018 L615.026703,98.4464018 L613.780825,99.6950082 L613.780825,85.4 L615.026703,86.6486064 L607.845429,86.6486064 Z M607.845429,85.4 L615.026703,85.4 L615.026703,99.6950082 L607.845429,99.6950082 L607.845429,85.4 L607.845429,85.4 Z" id="Rectangle-59-Copy-49"></path>
                <path d="M607.845429,139.148606 L607.845429,139.148606 L609.091307,137.9 L609.091307,152.195008 L607.845429,150.946402 L615.026703,150.946402 L613.780825,152.195008 L613.780825,137.9 L615.026703,139.148606 L607.845429,139.148606 Z M607.845429,137.9 L615.026703,137.9 L615.026703,152.195008 L607.845429,152.195008 L607.845429,137.9 L607.845429,137.9 Z" id="Rectangle-59-Copy-50"></path>
                <path d="M607.845429,118.848606 L607.845429,118.848606 L609.091307,117.6 L609.091307,131.895008 L607.845429,130.646402 L615.026703,130.646402 L613.780825,131.895008 L613.780825,117.6 L615.026703,118.848606 L607.845429,118.848606 Z M607.845429,117.6 L615.026703,117.6 L615.026703,131.895008 L607.845429,131.895008 L607.845429,117.6 L607.845429,117.6 Z" id="Rectangle-59-Copy-53"></path>
                <path d="M619.750236,86.6486064 L619.750236,86.6486064 L620.996114,85.4 L620.996114,99.6950082 L619.750236,98.4464018 L626.93151,98.4464018 L625.685632,99.6950082 L625.685632,85.4 L626.93151,86.6486064 L619.750236,86.6486064 Z M619.750236,85.4 L626.93151,85.4 L626.93151,99.6950082 L619.750236,99.6950082 L619.750236,85.4 L619.750236,85.4 Z" id="Rectangle-59-Copy-54"></path>
                <path d="M619.750236,139.148606 L619.750236,139.148606 L620.996114,137.9 L620.996114,152.195008 L619.750236,150.946402 L626.93151,150.946402 L625.685632,152.195008 L625.685632,137.9 L626.93151,139.148606 L619.750236,139.148606 Z M619.750236,137.9 L626.93151,137.9 L626.93151,152.195008 L619.750236,152.195008 L619.750236,137.9 L619.750236,137.9 Z" id="Rectangle-59-Copy-55"></path>
                <path d="M619.750236,118.848606 L619.750236,118.848606 L620.996114,117.6 L620.996114,131.895008 L619.750236,130.646402 L626.93151,130.646402 L625.685632,131.895008 L625.685632,117.6 L626.93151,118.848606 L619.750236,118.848606 Z M619.750236,117.6 L626.93151,117.6 L626.93151,131.895008 L619.750236,131.895008 L619.750236,117.6 L619.750236,117.6 Z" id="Rectangle-59-Copy-57"></path>
                <path d="M632.355325,86.6486064 L632.355325,86.6486064 L633.601203,85.4 L633.601203,99.6950082 L632.355325,98.4464018 L639.536599,98.4464018 L638.290721,99.6950082 L638.290721,85.4 L639.536599,86.6486064 L632.355325,86.6486064 Z M632.355325,85.4 L639.536599,85.4 L639.536599,99.6950082 L632.355325,99.6950082 L632.355325,85.4 L632.355325,85.4 Z" id="Rectangle-59-Copy-58"></path>
                <path d="M632.355325,139.148606 L632.355325,139.148606 L633.601203,137.9 L633.601203,152.195008 L632.355325,150.946402 L639.536599,150.946402 L638.290721,152.195008 L638.290721,137.9 L639.536599,139.148606 L632.355325,139.148606 Z M632.355325,137.9 L639.536599,137.9 L639.536599,152.195008 L632.355325,152.195008 L632.355325,137.9 L632.355325,137.9 Z" id="Rectangle-59-Copy-59"></path>
                <path d="M632.355325,171.348606 L632.355325,171.348606 L633.601203,170.1 L633.601203,184.395008 L632.355325,183.146402 L639.536599,183.146402 L638.290721,184.395008 L638.290721,170.1 L639.536599,171.348606 L632.355325,171.348606 Z M632.355325,170.1 L639.536599,170.1 L639.536599,184.395008 L632.355325,184.395008 L632.355325,170.1 L632.355325,170.1 Z" id="Rectangle-59-Copy-61"></path>
                <path d="M632.355325,118.848606 L632.355325,118.848606 L633.601203,117.6 L633.601203,131.895008 L632.355325,130.646402 L639.536599,130.646402 L638.290721,131.895008 L638.290721,117.6 L639.536599,118.848606 L632.355325,118.848606 Z M632.355325,117.6 L639.536599,117.6 L639.536599,131.895008 L632.355325,131.895008 L632.355325,117.6 L632.355325,117.6 Z" id="Rectangle-59-Copy-62"></path>
                <polygon id="Rectangle-69-Copy" points="599.287348 191.466815 599.287348 170.024303 598.664409 170.648606 625.594187 170.648606 624.971248 170.024303 624.971248 191.466815 626.217126 191.466815 626.217126 170.024303 626.217126 169.4 625.594187 169.4 598.664409 169.4 598.04147 169.4 598.04147 170.024303 598.04147 191.466815"></polygon>
                <path d="M623.930268,165.216459 C621.347185,161.133582 616.991104,158.9 611.734597,158.9 C606.8794,158.9 602.27547,161.323758 599.555838,165.191117 C599.357645,165.47295 599.42495,165.862439 599.706167,166.061066 C599.987384,166.259692 600.376023,166.19224 600.574215,165.910407 C603.061845,162.372959 607.287005,160.148606 611.734597,160.148606 C616.577667,160.148606 620.531409,162.175889 622.878066,165.885066 C623.062294,166.17626 623.447183,166.262646 623.73774,166.078015 C624.028298,165.893384 624.114495,165.507652 623.930268,165.216459 L623.930268,165.216459 Z" id="Oval-14-Copy-5"></path>
                <path d="M577.032988,67.0486064 L577.032988,67.0486064 L578.278866,65.8 L578.278866,76.5212561 L577.032988,75.2726498 L648.845728,75.2726498 L647.599849,76.5212561 L647.599849,65.8 L648.845728,67.0486064 L577.032988,67.0486064 Z M577.032988,65.8 L648.845728,65.8 L648.845728,76.5212561 L577.032988,76.5212561 L577.032988,65.8 L577.032988,65.8 Z" id="Rectangle-84-Copy"></path>
                <path d="M583.836805,67.0425427 C583.921013,66.9636009 584.131089,66.7857271 584.476147,66.5226666 C585.075944,66.0654019 585.828857,65.5505813 586.744049,64.9919847 C589.395006,63.3739453 592.804293,61.7471559 597.045403,60.2225214 C609.257319,55.8324652 625.671083,53.1900957 646.868653,53.1900957 L646.868653,50.4 C625.361882,50.4 608.631177,53.0933923 596.105415,57.5962726 C591.688337,59.1841658 588.108727,60.8922276 585.295943,62.6090394 C583.575193,63.6593169 582.478541,64.4953665 581.934967,65.0049496 L583.836805,67.0425427 L583.836805,67.0425427 Z" id="Path-189-Copy"></path>
                <polygon id="Path-190-Copy-5" points="596.640905 58.1 596.640905 65.7480464 597.886783 65.7480464 597.886783 58.1"></polygon>
                <polygon id="Path-190-Copy-6" points="609.245994 55.3 609.245994 65.6283605 610.491872 65.6283605 610.491872 55.3"></polygon>
                <polygon id="Path-190-Copy-7" points="619.750236 53.9 619.750236 66.0152365 620.996114 66.0152365 620.996114 53.9"></polygon>
                <polygon id="Path-190-Copy-8" points="630.254477 52.5 630.254477 66.4021125 631.500355 66.4021125 631.500355 52.5"></polygon>
                <polygon id="Path-190-Copy-9" points="641.459001 52.5 641.459001 66.4021125 642.704879 66.4021125 642.704879 52.5"></polygon>
                <path d="M483.195099,76.5422995 L483.195099,1.24561417 L483.195099,0 L484.446915,0 L549.386408,0 L550.638224,0 L550.638224,1.24561417 L550.638224,158.510509 L550.638224,159.756123 L549.386408,159.756123 L484.446915,159.756123 L483.888619,159.756123 L484.779913,157.596243 L485.698731,158.510509 L485.698731,155.369667 L484.916647,157.264894 L548.134594,157.264897 L548.134594,2.49122838 L546.942187,2.49122838 L548.128713,2.49122835 L485.698731,2.49122835 L485.698731,82.7922558 C484.846798,80.607149 483.925098,78.2831484 483.195099,76.5422995 Z" id="Combined-Shape"></path>
                <path d="M539.430391,13.1456142 L539.430391,13.1456142 L532.214892,13.1456142 L533.466707,11.9 L533.466707,26.1968086 L532.214892,24.9511944 L539.430391,24.9511944 L538.178575,26.1968086 L538.178575,11.9 L539.430391,13.1456142 Z M539.430391,11.9 L539.430391,11.9 L539.430391,26.1968086 L532.214892,26.1968086 L532.214892,11.9 L539.430391,11.9 Z" id="Rectangle-59-Copy-68"></path>
                <path d="M471.990575,178.486391 L471.990575,193.400535 L471.990575,194.646149 L473.242391,194.646149 L559.828382,194.64615 L561.080198,194.64615 L561.080198,193.400536 L561.080198,159.445614 L561.080198,158.2 L559.828382,158.2 L484.032334,158.2 L483.145119,160.691228 L558.576566,160.691228 L558.576566,192.154921 L474.494207,192.154921 L474.494207,175.130003 L471.990575,178.486391 Z" id="Combined-Shape"></path>
                <path d="M539.430391,36.2456142 L539.430391,36.2456142 L532.214892,36.2456142 L533.466707,35 L533.466707,49.2968086 L532.214892,48.0511944 L539.430391,48.0511944 L538.178575,49.2968086 L538.178575,35 L539.430391,36.2456142 Z M539.430391,35 L539.430391,35 L539.430391,49.2968086 L532.214892,49.2968086 L532.214892,35 L539.430391,35 Z" id="Rectangle-59-Copy-69"></path>
                <path d="M526.825301,13.1456142 L526.825301,13.1456142 L519.609802,13.1456142 L520.861618,11.9 L520.861618,26.1968086 L519.609802,24.9511944 L526.825301,24.9511944 L525.573486,26.1968086 L525.573486,11.9 L526.825301,13.1456142 Z M526.825301,11.9 L526.825301,11.9 L526.825301,26.1968086 L519.609802,26.1968086 L519.609802,11.9 L526.825301,11.9 Z" id="Rectangle-59-Copy-72"></path>
                <path d="M526.825301,36.2456142 L526.825301,36.2456142 L519.609802,36.2456142 L520.861618,35 L520.861618,49.2968086 L519.609802,48.0511944 L526.825301,48.0511944 L525.573486,49.2968086 L525.573486,35 L526.825301,36.2456142 Z M526.825301,35 L526.825301,35 L526.825301,49.2968086 L519.609802,49.2968086 L519.609802,35 L526.825301,35 Z" id="Rectangle-59-Copy-73"></path>
                <path d="M514.920495,13.1456142 L514.920495,13.1456142 L507.704995,13.1456142 L508.956811,11.9 L508.956811,26.1968086 L507.704995,24.9511944 L514.920495,24.9511944 L513.668679,26.1968086 L513.668679,11.9 L514.920495,13.1456142 Z M514.920495,11.9 L514.920495,11.9 L514.920495,26.1968086 L507.704995,26.1968086 L507.704995,11.9 L514.920495,11.9 Z" id="Rectangle-59-Copy-76"></path>
                <path d="M514.920495,36.2456142 L514.920495,36.2456142 L507.704995,36.2456142 L508.956811,35 L508.956811,49.2968086 L507.704995,48.0511944 L514.920495,48.0511944 L513.668679,49.2968086 L513.668679,35 L514.920495,36.2456142 Z M514.920495,35 L514.920495,35 L514.920495,49.2968086 L507.704995,49.2968086 L507.704995,35 L514.920495,35 Z" id="Rectangle-59-Copy-77"></path>
                <path d="M502.315405,13.1456142 L502.315405,13.1456142 L495.099906,13.1456142 L496.351722,11.9 L496.351722,26.1968086 L495.099906,24.9511944 L502.315405,24.9511944 L501.063589,26.1968086 L501.063589,11.9 L502.315405,13.1456142 Z M502.315405,11.9 L502.315405,11.9 L502.315405,26.1968086 L495.099906,26.1968086 L495.099906,11.9 L502.315405,11.9 Z" id="Rectangle-59-Copy-80"></path>
                <path d="M502.315405,36.2456142 L502.315405,36.2456142 L495.099906,36.2456142 L496.351722,35 L496.351722,49.2968086 L495.099906,48.0511944 L502.315405,48.0511944 L501.063589,49.2968086 L501.063589,35 L502.315405,36.2456142 Z M502.315405,35 L502.315405,35 L502.315405,49.2968086 L495.099906,49.2968086 L495.099906,35 L502.315405,35 Z" id="Rectangle-59-Copy-81"></path>
                <path d="M539.430391,60.7456142 L539.430391,60.7456142 L532.214892,60.7456142 L533.466707,59.5 L533.466707,73.7968086 L532.214892,72.5511944 L539.430391,72.5511944 L538.178575,73.7968086 L538.178575,59.5 L539.430391,60.7456142 Z M539.430391,59.5 L539.430391,59.5 L539.430391,73.7968086 L532.214892,73.7968086 L532.214892,59.5 L539.430391,59.5 Z" id="Rectangle-59-Copy-82"></path>
                <path d="M526.825301,60.7456142 L526.825301,60.7456142 L519.609802,60.7456142 L520.861618,59.5 L520.861618,73.7968086 L519.609802,72.5511944 L526.825301,72.5511944 L525.573486,73.7968086 L525.573486,59.5 L526.825301,60.7456142 Z M526.825301,59.5 L526.825301,59.5 L526.825301,73.7968086 L519.609802,73.7968086 L519.609802,59.5 L526.825301,59.5 Z" id="Rectangle-59-Copy-83"></path>
                <path d="M514.920495,60.7456142 L514.920495,60.7456142 L507.704995,60.7456142 L508.956811,59.5 L508.956811,73.7968086 L507.704995,72.5511944 L514.920495,72.5511944 L513.668679,73.7968086 L513.668679,59.5 L514.920495,60.7456142 Z M514.920495,59.5 L514.920495,59.5 L514.920495,73.7968086 L507.704995,73.7968086 L507.704995,59.5 L514.920495,59.5 Z" id="Rectangle-59-Copy-84"></path>
                <path d="M502.315405,60.7456142 L502.315405,60.7456142 L495.099906,60.7456142 L496.351722,59.5 L496.351722,73.7968086 L495.099906,72.5511944 L502.315405,72.5511944 L501.063589,73.7968086 L501.063589,59.5 L502.315405,60.7456142 Z M502.315405,59.5 L502.315405,59.5 L502.315405,73.7968086 L495.099906,73.7968086 L495.099906,59.5 L502.315405,59.5 Z" id="Rectangle-59-Copy-85"></path>
                <path d="M539.430391,83.8456142 L539.430391,83.8456142 L532.214892,83.8456142 L533.466707,82.6 L533.466707,96.8968086 L532.214892,95.6511944 L539.430391,95.6511944 L538.178575,96.8968086 L538.178575,82.6 L539.430391,83.8456142 Z M539.430391,82.6 L539.430391,82.6 L539.430391,96.8968086 L532.214892,96.8968086 L532.214892,82.6 L539.430391,82.6 Z" id="Rectangle-59-Copy-86"></path>
                <path d="M526.825301,83.8456142 L526.825301,83.8456142 L519.609802,83.8456142 L520.861618,82.6 L520.861618,96.8968086 L519.609802,95.6511944 L526.825301,95.6511944 L525.573486,96.8968086 L525.573486,82.6 L526.825301,83.8456142 Z M526.825301,82.6 L526.825301,82.6 L526.825301,96.8968086 L519.609802,96.8968086 L519.609802,82.6 L526.825301,82.6 Z" id="Rectangle-59-Copy-87"></path>
                <path d="M514.920495,83.8456142 L514.920495,83.8456142 L507.704995,83.8456142 L508.956811,82.6 L508.956811,96.8968086 L507.704995,95.6511944 L514.920495,95.6511944 L513.668679,96.8968086 L513.668679,82.6 L514.920495,83.8456142 Z M514.920495,82.6 L514.920495,82.6 L514.920495,96.8968086 L507.704995,96.8968086 L507.704995,82.6 L514.920495,82.6 Z" id="Rectangle-59-Copy-88"></path>
                <path d="M502.315405,83.8456142 L502.315405,83.8456142 L495.099906,83.8456142 L496.351722,82.6 L496.351722,96.8968086 L495.099906,95.6511944 L502.315405,95.6511944 L501.063589,96.8968086 L501.063589,82.6 L502.315405,83.8456142 Z M502.315405,82.6 L502.315405,82.6 L502.315405,96.8968086 L495.099906,96.8968086 L495.099906,82.6 L502.315405,82.6 Z" id="Rectangle-59-Copy-89"></path>
                <path d="M539.430391,106.945614 L539.430391,106.945614 L532.214892,106.945614 L533.466707,105.7 L533.466707,119.996809 L532.214892,118.751194 L539.430391,118.751194 L538.178575,119.996809 L538.178575,105.7 L539.430391,106.945614 Z M539.430391,105.7 L539.430391,105.7 L539.430391,119.996809 L532.214892,119.996809 L532.214892,105.7 L539.430391,105.7 Z" id="Rectangle-59-Copy-90"></path>
                <path d="M526.825301,106.945614 L526.825301,106.945614 L519.609802,106.945614 L520.861618,105.7 L520.861618,119.996809 L519.609802,118.751194 L526.825301,118.751194 L525.573486,119.996809 L525.573486,105.7 L526.825301,106.945614 Z M526.825301,105.7 L526.825301,105.7 L526.825301,119.996809 L519.609802,119.996809 L519.609802,105.7 L526.825301,105.7 Z" id="Rectangle-59-Copy-91"></path>
                <path d="M514.920495,106.945614 L514.920495,106.945614 L507.704995,106.945614 L508.956811,105.7 L508.956811,119.996809 L507.704995,118.751194 L514.920495,118.751194 L513.668679,119.996809 L513.668679,105.7 L514.920495,106.945614 Z M514.920495,105.7 L514.920495,105.7 L514.920495,119.996809 L507.704995,119.996809 L507.704995,105.7 L514.920495,105.7 Z" id="Rectangle-59-Copy-92"></path>
                <path d="M502.315405,106.945614 L502.315405,106.945614 L495.099906,106.945614 L496.351722,105.7 L496.351722,119.996809 L495.099906,118.751194 L502.315405,118.751194 L501.063589,119.996809 L501.063589,105.7 L502.315405,106.945614 Z M502.315405,105.7 L502.315405,105.7 L502.315405,119.996809 L495.099906,119.996809 L495.099906,105.7 L502.315405,105.7 Z" id="Rectangle-59-Copy-93"></path>
                <path d="M539.430391,131.445614 L539.430391,131.445614 L532.214892,131.445614 L533.466707,130.2 L533.466707,144.496809 L532.214892,143.251194 L539.430391,143.251194 L538.178575,144.496809 L538.178575,130.2 L539.430391,131.445614 Z M539.430391,130.2 L539.430391,130.2 L539.430391,144.496809 L532.214892,144.496809 L532.214892,130.2 L539.430391,130.2 Z" id="Rectangle-59-Copy-94"></path>
                <path d="M526.825301,131.445614 L526.825301,131.445614 L519.609802,131.445614 L520.861618,130.2 L520.861618,144.496809 L519.609802,143.251194 L526.825301,143.251194 L525.573486,144.496809 L525.573486,130.2 L526.825301,131.445614 Z M526.825301,130.2 L526.825301,130.2 L526.825301,144.496809 L519.609802,144.496809 L519.609802,130.2 L526.825301,130.2 Z" id="Rectangle-59-Copy-95"></path>
                <path d="M514.920495,131.445614 L514.920495,131.445614 L507.704995,131.445614 L508.956811,130.2 L508.956811,144.496809 L507.704995,143.251194 L514.920495,143.251194 L513.668679,144.496809 L513.668679,130.2 L514.920495,131.445614 Z M514.920495,130.2 L514.920495,130.2 L514.920495,144.496809 L507.704995,144.496809 L507.704995,130.2 L514.920495,130.2 Z" id="Rectangle-59-Copy-96"></path>
                <path d="M502.315405,131.445614 L502.315405,131.445614 L495.099906,131.445614 L496.351722,130.2 L496.351722,144.496809 L495.099906,143.251194 L502.315405,143.251194 L501.063589,144.496809 L501.063589,130.2 L502.315405,131.445614 Z M502.315405,130.2 L502.315405,130.2 L502.315405,144.496809 L495.099906,144.496809 L495.099906,130.2 L502.315405,130.2 Z" id="Rectangle-59-Copy-97"></path>
                <path d="M549.340685,171.345614 L549.340685,171.345614 L538.517436,171.345614 L539.769252,170.1 L539.769252,191.545213 L538.517436,190.299599 L549.340685,190.299599 L548.08887,191.545213 L548.08887,170.1 L549.340685,171.345614 Z M549.340685,170.1 L549.340685,170.1 L549.340685,191.545213 L538.517436,191.545213 L538.517436,170.1 L549.340685,170.1 Z" id="Rectangle-76-Copy-8"></path>
                <path d="M529.861138,171.345614 L529.861138,171.345614 L502.803016,171.345614 L504.054832,170.1 L504.054832,191.545213 L502.803016,190.299599 L529.861138,190.299599 L528.609323,191.545213 L528.609323,170.1 L529.861138,171.345614 Z M529.861138,170.1 L529.861138,170.1 L529.861138,191.545213 L502.803016,191.545213 L502.803016,170.1 L529.861138,170.1 Z" id="Rectangle-76-Copy-9"></path>
                <path d="M495.418913,171.345614 L495.418913,171.345614 L484.595664,171.345614 L485.84748,170.1 L485.84748,191.545213 L484.595664,190.299599 L495.418913,190.299599 L494.167098,191.545213 L494.167098,170.1 L495.418913,171.345614 Z M495.418913,170.1 L495.418913,170.1 L495.418913,191.545213 L484.595664,191.545213 L484.595664,170.1 L495.418913,170.1 Z" id="Rectangle-76-Copy-10"></path>
                <path d="M55.2399609,99.7712539 L55.2399609,99.7712539 L55.960517,96.2071798 L56.0847233,96.2071798 L56.8052794,99.7712539 L41.4814354,175.567318 L41.1696482,175.567318 L40.1658009,174.33231 L40.227904,174.02513 L71.8173363,174.02513 L71.8794395,174.33231 L70.8755921,175.567318 L70.5638049,175.567318 L55.2399609,99.7712539 Z M56.0226202,95.9 L72.1291235,175.567318 L39.9161169,175.567318 L56.0226202,95.9 L56.0226202,95.9 Z" id="Rectangle-126"></path>
                <polygon id="Path-3068" points="57.6232665 194.309919 57.6232665 174.3 55.3223374 174.3 55.3223374 194.309919"></polygon>
                <path d="M717.007162,100.471254 L717.007162,100.471254 L717.727718,96.9071798 L717.851924,96.9071798 L718.57248,100.471254 L703.248636,176.267318 L702.936849,176.267318 L701.933002,175.03231 L701.995105,174.72513 L733.584537,174.72513 L733.64664,175.03231 L732.642793,176.267318 L732.331006,176.267318 L717.007162,100.471254 Z M717.789821,96.6 L733.896324,176.267318 L701.683318,176.267318 L717.789821,96.6 L717.789821,96.6 Z" id="Rectangle-126"></path>
                <polygon id="Path-3068" points="719.390467 195.009919 719.390467 175 717.089538 175 717.089538 195.009919"></polygon>
                <path d="M678.776253,145.373667 L678.776253,145.373667 L679.445108,143.263211 L679.738713,143.263211 L680.407568,145.373667 L667.600213,185.785058 L667.110844,185.785058 L666.311463,184.704151 L666.458266,184.240941 L692.725555,184.240941 L692.872357,184.704151 L692.072976,185.785058 L691.583608,185.785058 L678.776253,145.373667 Z M679.59191,142.8 L693.214923,185.785058 L665.968897,185.785058 L679.59191,142.8 L679.59191,142.8 Z" id="Rectangle-126-Copy"></path>
                <polygon id="Path-3068-Copy" points="680.908263 194.896492 680.908263 184.1 678.573987 184.1 678.573987 194.896492"></polygon>
                <path d="M19.1099,144.673667 L19.1099,144.673667 L19.778755,142.563211 L20.0723605,142.563211 L20.7412154,144.673667 L7.93386015,185.085058 L7.44449162,185.085058 L6.64511056,184.004151 L6.7919133,183.540941 L33.0592022,183.540941 L33.2060049,184.004151 L32.4066238,185.085058 L31.9172553,185.085058 L19.1099,144.673667 Z M19.9255577,142.1 L33.5485707,185.085058 L6.30254477,185.085058 L19.9255577,142.1 L19.9255577,142.1 Z" id="Rectangle-126-Copy"></path>
                <polygon id="Path-3068-Copy" points="21.2419101 194.196492 21.2419101 183.4 18.9076343 183.4 18.9076343 194.196492"></polygon>
                <polygon id="Path-175-Copy-11" points="287.343583 107.8 222.689915 107.8 222.689915 109.04528 287.343583 109.04528"></polygon>
                <polygon id="Path-175-Copy-12" points="287.343583 156.8 222.689915 156.8 222.689915 158.04528 287.343583 158.04528"></polygon>
                <polygon id="Path-175-Copy-13" points="287.343583 114.1 222.689915 114.1 222.689915 115.34528 287.343583 115.34528"></polygon>
                <polygon id="Path-175-Copy-14" points="286.670244 165.9 269.60886 165.9 269.60886 167.14528 286.670244 167.14528"></polygon>
                <polygon id="Path-175-Copy-15" points="240.451583 165.9 223.390198 165.9 223.390198 167.14528 240.451583 167.14528"></polygon>
                <path d="M285.195994,89.4452804 L285.195994,89.4452804 L278.012253,89.4452804 L279.258559,88.2 L279.258559,102.492977 L278.012253,101.247697 L285.195994,101.247697 L283.949687,102.492977 L283.949687,88.2 L285.195994,89.4452804 Z M285.195994,88.2 L285.195994,88.2 L285.195994,102.492977 L278.012253,102.492977 L278.012253,88.2 L285.195994,88.2 Z" id="Rectangle-59-Copy-64"></path>
                <path d="M285.195994,174.14528 L285.195994,174.14528 L278.012253,174.14528 L279.258559,172.9 L279.258559,187.192977 L278.012253,185.947697 L285.195994,185.947697 L283.949687,187.192977 L283.949687,172.9 L285.195994,174.14528 Z M285.195994,172.9 L285.195994,172.9 L285.195994,187.192977 L278.012253,187.192977 L278.012253,172.9 L285.195994,172.9 Z" id="Rectangle-59-Copy-65"></path>
                <path d="M285.195994,121.64528 L285.195994,121.64528 L278.012253,121.64528 L279.258559,120.4 L279.258559,151.521805 L278.012253,150.276525 L285.195994,150.276525 L283.949687,151.521805 L283.949687,120.4 L285.195994,121.64528 Z M285.195994,120.4 L285.195994,120.4 L285.195994,151.521805 L278.012253,151.521805 L278.012253,120.4 L285.195994,120.4 Z" id="Rectangle-59-Copy-66"></path>
                <path d="M272.590904,89.4452804 L272.590904,89.4452804 L265.407163,89.4452804 L266.653469,88.2 L266.653469,102.492977 L265.407163,101.247697 L272.590904,101.247697 L271.344598,102.492977 L271.344598,88.2 L272.590904,89.4452804 Z M272.590904,88.2 L272.590904,88.2 L272.590904,102.492977 L265.407163,102.492977 L265.407163,88.2 L272.590904,88.2 Z" id="Rectangle-59-Copy-67"></path>
                <path d="M272.590904,121.64528 L272.590904,121.64528 L265.407163,121.64528 L266.653469,120.4 L266.653469,151.521805 L265.407163,150.276525 L272.590904,150.276525 L271.344598,151.521805 L271.344598,120.4 L272.590904,121.64528 Z M272.590904,120.4 L272.590904,120.4 L272.590904,151.521805 L265.407163,151.521805 L265.407163,120.4 L272.590904,120.4 Z" id="Rectangle-59-Copy-70"></path>
                <path d="M260.686097,89.4452804 L260.686097,89.4452804 L253.502356,89.4452804 L254.748662,88.2 L254.748662,102.492977 L253.502356,101.247697 L260.686097,101.247697 L259.439791,102.492977 L259.439791,88.2 L260.686097,89.4452804 Z M260.686097,88.2 L260.686097,88.2 L260.686097,102.492977 L253.502356,102.492977 L253.502356,88.2 L260.686097,88.2 Z" id="Rectangle-59-Copy-71"></path>
                <path d="M260.686097,121.64528 L260.686097,121.64528 L253.502356,121.64528 L254.748662,120.4 L254.748662,151.521805 L253.502356,150.276525 L260.686097,150.276525 L259.439791,151.521805 L259.439791,120.4 L260.686097,121.64528 Z M260.686097,120.4 L260.686097,120.4 L260.686097,151.521805 L253.502356,151.521805 L253.502356,120.4 L260.686097,120.4 Z" id="Rectangle-59-Copy-74"></path>
                <path d="M246.680442,89.4452804 L246.680442,89.4452804 L239.496701,89.4452804 L240.743007,88.2 L240.743007,102.492977 L239.496701,101.247697 L246.680442,101.247697 L245.434136,102.492977 L245.434136,88.2 L246.680442,89.4452804 Z M246.680442,88.2 L246.680442,88.2 L246.680442,102.492977 L239.496701,102.492977 L239.496701,88.2 L246.680442,88.2 Z" id="Rectangle-59-Copy-75"></path>
                <path d="M246.680442,121.64528 L246.680442,121.64528 L239.496701,121.64528 L240.743007,120.4 L240.743007,151.521805 L239.496701,150.276525 L246.680442,150.276525 L245.434136,151.521805 L245.434136,120.4 L246.680442,121.64528 Z M246.680442,120.4 L246.680442,120.4 L246.680442,151.521805 L239.496701,151.521805 L239.496701,120.4 L246.680442,120.4 Z" id="Rectangle-59-Copy-78"></path>
                <path d="M234.775635,89.4452804 L234.775635,89.4452804 L227.591894,89.4452804 L228.8382,88.2 L228.8382,102.492977 L227.591894,101.247697 L234.775635,101.247697 L233.529329,102.492977 L233.529329,88.2 L234.775635,89.4452804 Z M234.775635,88.2 L234.775635,88.2 L234.775635,102.492977 L227.591894,102.492977 L227.591894,88.2 L234.775635,88.2 Z" id="Rectangle-59-Copy-79"></path>
                <path d="M234.775635,174.14528 L234.775635,174.14528 L227.591894,174.14528 L228.8382,172.9 L228.8382,187.192977 L227.591894,185.947697 L234.775635,185.947697 L233.529329,187.192977 L233.529329,172.9 L234.775635,174.14528 Z M234.775635,172.9 L234.775635,172.9 L234.775635,187.192977 L227.591894,187.192977 L227.591894,172.9 L234.775635,172.9 Z" id="Rectangle-59-Copy-98"></path>
                <path d="M234.775635,121.64528 L234.775635,121.64528 L227.591894,121.64528 L228.8382,120.4 L228.8382,151.521805 L227.591894,150.276525 L234.775635,150.276525 L233.529329,151.521805 L233.529329,120.4 L234.775635,121.64528 Z M234.775635,120.4 L234.775635,120.4 L234.775635,151.521805 L227.591894,151.521805 L227.591894,120.4 L234.775635,120.4 Z" id="Rectangle-59-Copy-99"></path>
                <path d="M244.848293,168.681056 C247.195896,164.972185 251.150821,162.94528 255.99521,162.94528 C260.443962,162.94528 264.670411,165.169232 267.158999,168.706325 C267.356925,168.987642 267.745617,169.055377 268.027166,168.857613 C268.308715,168.65985 268.376505,168.271478 268.178579,167.990161 C265.458117,164.123499 260.852443,161.7 255.99521,161.7 C250.736553,161.7 246.3788,163.933355 243.794969,168.01543 C243.61101,168.306058 243.697677,168.690664 243.988544,168.874472 C244.279412,169.058279 244.664334,168.971684 244.848293,168.681056 L244.848293,168.681056 Z" id="Oval-14-Copy-13"></path>
                <polygon id="Path-395-Copy-8" points="227.591894 130.04528 233.790568 130.04528 233.790568 128.8 227.591894 128.8"></polygon>
                <polygon id="Path-395-Copy-9" points="265.407163 130.04528 271.605837 130.04528 271.605837 128.8 265.407163 128.8"></polygon>
                <polygon id="Path-395-Copy-10" points="239.496701 130.04528 245.695375 130.04528 245.695375 128.8 239.496701 128.8"></polygon>
                <polygon id="Path-395-Copy-11" points="278.012253 130.04528 284.210926 130.04528 284.210926 128.8 278.012253 128.8"></polygon>
                <polygon id="Path-395-Copy-12" points="227.591894 142.64528 233.790568 142.64528 233.790568 141.4 227.591894 141.4"></polygon>
                <polygon id="Path-395-Copy-13" points="265.407163 142.64528 271.605837 142.64528 271.605837 141.4 265.407163 141.4"></polygon>
                <polygon id="Path-395-Copy-14" points="239.496701 142.64528 245.695375 142.64528 245.695375 141.4 239.496701 141.4"></polygon>
                <polygon id="Path-395-Copy-15" points="278.012253 142.64528 284.210926 142.64528 284.210926 141.4 278.012253 141.4"></polygon>
                <polygon id="Path-175-Copy-11" points="224.318136 107.8 159.664467 107.8 159.664467 109.04528 224.318136 109.04528"></polygon>
                <polygon id="Path-175-Copy-12" points="224.318136 156.8 159.664467 156.8 159.664467 158.04528 224.318136 158.04528"></polygon>
                <polygon id="Path-175-Copy-13" points="224.318136 114.1 159.664467 114.1 159.664467 115.34528 224.318136 115.34528"></polygon>
                <polygon id="Path-175-Copy-14" points="223.644797 165.9 206.583412 165.9 206.583412 167.14528 223.644797 167.14528"></polygon>
                <polygon id="Path-175-Copy-15" points="177.426135 165.9 160.36475 165.9 160.36475 167.14528 177.426135 167.14528"></polygon>
                <path d="M222.170546,89.4452804 L222.170546,89.4452804 L214.986805,89.4452804 L216.233111,88.2 L216.233111,102.492977 L214.986805,101.247697 L222.170546,101.247697 L220.92424,102.492977 L220.92424,88.2 L222.170546,89.4452804 Z M222.170546,88.2 L222.170546,88.2 L222.170546,102.492977 L214.986805,102.492977 L214.986805,88.2 L222.170546,88.2 Z" id="Rectangle-59-Copy-64"></path>
                <path d="M222.170546,174.14528 L222.170546,174.14528 L214.986805,174.14528 L216.233111,172.9 L216.233111,187.192977 L214.986805,185.947697 L222.170546,185.947697 L220.92424,187.192977 L220.92424,172.9 L222.170546,174.14528 Z M222.170546,172.9 L222.170546,172.9 L222.170546,187.192977 L214.986805,187.192977 L214.986805,172.9 L222.170546,172.9 Z" id="Rectangle-59-Copy-65"></path>
                <path d="M222.170546,121.64528 L222.170546,121.64528 L214.986805,121.64528 L216.233111,120.4 L216.233111,151.521805 L214.986805,150.276525 L222.170546,150.276525 L220.92424,151.521805 L220.92424,120.4 L222.170546,121.64528 Z M222.170546,120.4 L222.170546,120.4 L222.170546,151.521805 L214.986805,151.521805 L214.986805,120.4 L222.170546,120.4 Z" id="Rectangle-59-Copy-66"></path>
                <path d="M209.565456,89.4452804 L209.565456,89.4452804 L202.381715,89.4452804 L203.628021,88.2 L203.628021,102.492977 L202.381715,101.247697 L209.565456,101.247697 L208.31915,102.492977 L208.31915,88.2 L209.565456,89.4452804 Z M209.565456,88.2 L209.565456,88.2 L209.565456,102.492977 L202.381715,102.492977 L202.381715,88.2 L209.565456,88.2 Z" id="Rectangle-59-Copy-67"></path>
                <path d="M209.565456,121.64528 L209.565456,121.64528 L202.381715,121.64528 L203.628021,120.4 L203.628021,151.521805 L202.381715,150.276525 L209.565456,150.276525 L208.31915,151.521805 L208.31915,120.4 L209.565456,121.64528 Z M209.565456,120.4 L209.565456,120.4 L209.565456,151.521805 L202.381715,151.521805 L202.381715,120.4 L209.565456,120.4 Z" id="Rectangle-59-Copy-70"></path>
                <path d="M197.66065,89.4452804 L197.66065,89.4452804 L190.476909,89.4452804 L191.723215,88.2 L191.723215,102.492977 L190.476909,101.247697 L197.66065,101.247697 L196.414343,102.492977 L196.414343,88.2 L197.66065,89.4452804 Z M197.66065,88.2 L197.66065,88.2 L197.66065,102.492977 L190.476909,102.492977 L190.476909,88.2 L197.66065,88.2 Z" id="Rectangle-59-Copy-71"></path>
                <path d="M197.66065,121.64528 L197.66065,121.64528 L190.476909,121.64528 L191.723215,120.4 L191.723215,151.521805 L190.476909,150.276525 L197.66065,150.276525 L196.414343,151.521805 L196.414343,120.4 L197.66065,121.64528 Z M197.66065,120.4 L197.66065,120.4 L197.66065,151.521805 L190.476909,151.521805 L190.476909,120.4 L197.66065,120.4 Z" id="Rectangle-59-Copy-74"></path>
                <path d="M183.654994,89.4452804 L183.654994,89.4452804 L176.471254,89.4452804 L177.71756,88.2 L177.71756,102.492977 L176.471254,101.247697 L183.654994,101.247697 L182.408688,102.492977 L182.408688,88.2 L183.654994,89.4452804 Z M183.654994,88.2 L183.654994,88.2 L183.654994,102.492977 L176.471254,102.492977 L176.471254,88.2 L183.654994,88.2 Z" id="Rectangle-59-Copy-75"></path>
                <path d="M183.654994,121.64528 L183.654994,121.64528 L176.471254,121.64528 L177.71756,120.4 L177.71756,151.521805 L176.471254,150.276525 L183.654994,150.276525 L182.408688,151.521805 L182.408688,120.4 L183.654994,121.64528 Z M183.654994,120.4 L183.654994,120.4 L183.654994,151.521805 L176.471254,151.521805 L176.471254,120.4 L183.654994,120.4 Z" id="Rectangle-59-Copy-78"></path>
                <path d="M171.049905,89.4452804 L171.049905,89.4452804 L163.866164,89.4452804 L165.11247,88.2 L165.11247,102.492977 L163.866164,101.247697 L171.049905,101.247697 L169.803599,102.492977 L169.803599,88.2 L171.049905,89.4452804 Z M171.049905,88.2 L171.049905,88.2 L171.049905,102.492977 L163.866164,102.492977 L163.866164,88.2 L171.049905,88.2 Z" id="Rectangle-59-Copy-79"></path>
                <path d="M171.049905,174.14528 L171.049905,174.14528 L163.866164,174.14528 L165.11247,172.9 L165.11247,187.192977 L163.866164,185.947697 L171.049905,185.947697 L169.803599,187.192977 L169.803599,172.9 L171.049905,174.14528 Z M171.049905,172.9 L171.049905,172.9 L171.049905,187.192977 L163.866164,187.192977 L163.866164,172.9 L171.049905,172.9 Z" id="Rectangle-59-Copy-98"></path>
                <path d="M171.049905,121.64528 L171.049905,121.64528 L163.866164,121.64528 L165.11247,120.4 L165.11247,151.521805 L163.866164,150.276525 L171.049905,150.276525 L169.803599,151.521805 L169.803599,120.4 L171.049905,121.64528 Z M171.049905,120.4 L171.049905,120.4 L171.049905,151.521805 L163.866164,151.521805 L163.866164,120.4 L171.049905,120.4 Z" id="Rectangle-59-Copy-99"></path>
                <polygon id="Rectangle-69-Copy-2" points="207.457719 194.262106 207.457719 172.82264 207.457719 172.2 206.834566 172.2 179.895538 172.2 179.272385 172.2 179.272385 172.82264 179.272385 194.262106 180.518691 194.262106 180.518691 172.82264 179.895538 173.44528 206.834566 173.44528 206.211413 172.82264 206.211413 194.262106"></polygon>
                <path d="M181.822845,168.681056 C184.170449,164.972185 188.125373,162.94528 192.969762,162.94528 C197.418514,162.94528 201.644964,165.169232 204.133552,168.706325 C204.331478,168.987642 204.720169,169.055377 205.001718,168.857613 C205.283267,168.65985 205.351057,168.271478 205.153131,167.990161 C202.432669,164.123499 197.826995,161.7 192.969762,161.7 C187.711105,161.7 183.353352,163.933355 180.769521,168.01543 C180.585563,168.306058 180.672229,168.690664 180.963097,168.874472 C181.253964,169.058279 181.638887,168.971684 181.822845,168.681056 L181.822845,168.681056 Z" id="Oval-14-Copy-13"></path>
                <polygon id="Path-395-Copy-8" points="163.866164 130.04528 170.064838 130.04528 170.064838 128.8 163.866164 128.8"></polygon>
                <polygon id="Path-395-Copy-9" points="202.381715 130.04528 208.580389 130.04528 208.580389 128.8 202.381715 128.8"></polygon>
                <polygon id="Path-395-Copy-10" points="176.471254 130.04528 182.669927 130.04528 182.669927 128.8 176.471254 128.8"></polygon>
                <polygon id="Path-395-Copy-11" points="214.986805 130.04528 221.185479 130.04528 221.185479 128.8 214.986805 128.8"></polygon>
                <polygon id="Path-395-Copy-12" points="163.866164 142.64528 170.064838 142.64528 170.064838 141.4 163.866164 141.4"></polygon>
                <polygon id="Path-395-Copy-13" points="202.381715 142.64528 208.580389 142.64528 208.580389 141.4 202.381715 141.4"></polygon>
                <polygon id="Path-395-Copy-14" points="176.471254 142.64528 182.669927 142.64528 182.669927 141.4 176.471254 141.4"></polygon>
                <polygon id="Path-395-Copy-15" points="214.986805 142.64528 221.185479 142.64528 221.185479 141.4 214.986805 141.4"></polygon>
                <polygon id="Path-403-Copy" points="192.577757 172.9 192.577757 194.052802 193.824063 194.052802 193.824063 172.9"></polygon>
                <polygon id="Path-175-Copy-11" points="159.892123 107.8 95.2384543 107.8 95.2384543 109.04528 159.892123 109.04528"></polygon>
                <polygon id="Path-175-Copy-12" points="159.892123 156.8 95.2384543 156.8 95.2384543 158.04528 159.892123 158.04528"></polygon>
                <polygon id="Path-175-Copy-13" points="159.892123 114.1 95.2384543 114.1 95.2384543 115.34528 159.892123 115.34528"></polygon>
                <polygon id="Path-175-Copy-14" points="159.218783 165.9 142.157399 165.9 142.157399 167.14528 159.218783 167.14528"></polygon>
                <polygon id="Path-175-Copy-15" points="113.000122 165.9 95.938737 165.9 95.938737 167.14528 113.000122 167.14528"></polygon>
                <path d="M157.744533,89.4452804 L157.744533,89.4452804 L150.560792,89.4452804 L151.807098,88.2 L151.807098,102.492977 L150.560792,101.247697 L157.744533,101.247697 L156.498227,102.492977 L156.498227,88.2 L157.744533,89.4452804 Z M157.744533,88.2 L157.744533,88.2 L157.744533,102.492977 L150.560792,102.492977 L150.560792,88.2 L157.744533,88.2 Z" id="Rectangle-59-Copy-64"></path>
                <path d="M157.744533,174.14528 L157.744533,174.14528 L150.560792,174.14528 L151.807098,172.9 L151.807098,187.192977 L150.560792,185.947697 L157.744533,185.947697 L156.498227,187.192977 L156.498227,172.9 L157.744533,174.14528 Z M157.744533,172.9 L157.744533,172.9 L157.744533,187.192977 L150.560792,187.192977 L150.560792,172.9 L157.744533,172.9 Z" id="Rectangle-59-Copy-65"></path>
                <path d="M138.836898,174.14528 L138.836898,174.14528 L131.653157,174.14528 L132.899463,172.9 L132.899463,187.192977 L131.653157,185.947697 L138.836898,185.947697 L137.590592,187.192977 L137.590592,172.9 L138.836898,174.14528 Z M138.836898,172.9 L138.836898,172.9 L138.836898,187.192977 L131.653157,187.192977 L131.653157,172.9 L138.836898,172.9 Z" id="Rectangle-59-Copy-98"></path>
                <path d="M125.531526,174.14528 L125.531526,174.14528 L118.347785,174.14528 L119.594091,172.9 L119.594091,187.192977 L118.347785,185.947697 L125.531526,185.947697 L124.28522,187.192977 L124.28522,172.9 L125.531526,174.14528 Z M125.531526,172.9 L125.531526,172.9 L125.531526,187.192977 L118.347785,187.192977 L118.347785,172.9 L125.531526,172.9 Z" id="Rectangle-59-Copy-65"></path>
                <path d="M266.988642,174.14528 L266.988642,174.14528 L259.804901,174.14528 L261.051207,172.9 L261.051207,187.192977 L259.804901,185.947697 L266.988642,185.947697 L265.742336,187.192977 L265.742336,172.9 L266.988642,174.14528 Z M266.988642,172.9 L266.988642,172.9 L266.988642,187.192977 L259.804901,187.192977 L259.804901,172.9 L266.988642,172.9 Z" id="Rectangle-59-Copy-98"></path>
                <path d="M252.982987,174.14528 L252.982987,174.14528 L245.799246,174.14528 L247.045552,172.9 L247.045552,187.192977 L245.799246,185.947697 L252.982987,185.947697 L251.736681,187.192977 L251.736681,172.9 L252.982987,174.14528 Z M252.982987,172.9 L252.982987,172.9 L252.982987,187.192977 L245.799246,187.192977 L245.799246,172.9 L252.982987,172.9 Z" id="Rectangle-59-Copy-65"></path>
                <path d="M157.744533,121.64528 L157.744533,121.64528 L150.560792,121.64528 L151.807098,120.4 L151.807098,151.521805 L150.560792,150.276525 L157.744533,150.276525 L156.498227,151.521805 L156.498227,120.4 L157.744533,121.64528 Z M157.744533,120.4 L157.744533,120.4 L157.744533,151.521805 L150.560792,151.521805 L150.560792,120.4 L157.744533,120.4 Z" id="Rectangle-59-Copy-66"></path>
                <path d="M145.139443,89.4452804 L145.139443,89.4452804 L137.955702,89.4452804 L139.202008,88.2 L139.202008,102.492977 L137.955702,101.247697 L145.139443,101.247697 L143.893137,102.492977 L143.893137,88.2 L145.139443,89.4452804 Z M145.139443,88.2 L145.139443,88.2 L145.139443,102.492977 L137.955702,102.492977 L137.955702,88.2 L145.139443,88.2 Z" id="Rectangle-59-Copy-67"></path>
                <path d="M145.139443,121.64528 L145.139443,121.64528 L137.955702,121.64528 L139.202008,120.4 L139.202008,151.521805 L137.955702,150.276525 L145.139443,150.276525 L143.893137,151.521805 L143.893137,120.4 L145.139443,121.64528 Z M145.139443,120.4 L145.139443,120.4 L145.139443,151.521805 L137.955702,151.521805 L137.955702,120.4 L145.139443,120.4 Z" id="Rectangle-59-Copy-70"></path>
                <path d="M133.234636,89.4452804 L133.234636,89.4452804 L126.050895,89.4452804 L127.297201,88.2 L127.297201,102.492977 L126.050895,101.247697 L133.234636,101.247697 L131.98833,102.492977 L131.98833,88.2 L133.234636,89.4452804 Z M133.234636,88.2 L133.234636,88.2 L133.234636,102.492977 L126.050895,102.492977 L126.050895,88.2 L133.234636,88.2 Z" id="Rectangle-59-Copy-71"></path>
                <path d="M133.234636,121.64528 L133.234636,121.64528 L126.050895,121.64528 L127.297201,120.4 L127.297201,151.521805 L126.050895,150.276525 L133.234636,150.276525 L131.98833,151.521805 L131.98833,120.4 L133.234636,121.64528 Z M133.234636,120.4 L133.234636,120.4 L133.234636,151.521805 L126.050895,151.521805 L126.050895,120.4 L133.234636,120.4 Z" id="Rectangle-59-Copy-74"></path>
                <path d="M119.228981,89.4452804 L119.228981,89.4452804 L112.04524,89.4452804 L113.291546,88.2 L113.291546,102.492977 L112.04524,101.247697 L119.228981,101.247697 L117.982675,102.492977 L117.982675,88.2 L119.228981,89.4452804 Z M119.228981,88.2 L119.228981,88.2 L119.228981,102.492977 L112.04524,102.492977 L112.04524,88.2 L119.228981,88.2 Z" id="Rectangle-59-Copy-75"></path>
                <path d="M119.228981,121.64528 L119.228981,121.64528 L112.04524,121.64528 L113.291546,120.4 L113.291546,151.521805 L112.04524,150.276525 L119.228981,150.276525 L117.982675,151.521805 L117.982675,120.4 L119.228981,121.64528 Z M119.228981,120.4 L119.228981,120.4 L119.228981,151.521805 L112.04524,151.521805 L112.04524,120.4 L119.228981,120.4 Z" id="Rectangle-59-Copy-78"></path>
                <path d="M106.623892,89.4452804 L106.623892,89.4452804 L99.4401508,89.4452804 L100.686457,88.2 L100.686457,102.492977 L99.4401508,101.247697 L106.623892,101.247697 L105.377586,102.492977 L105.377586,88.2 L106.623892,89.4452804 Z M106.623892,88.2 L106.623892,88.2 L106.623892,102.492977 L99.4401508,102.492977 L99.4401508,88.2 L106.623892,88.2 Z" id="Rectangle-59-Copy-79"></path>
                <path d="M106.623892,174.14528 L106.623892,174.14528 L99.4401508,174.14528 L100.686457,172.9 L100.686457,187.192977 L99.4401508,185.947697 L106.623892,185.947697 L105.377586,187.192977 L105.377586,172.9 L106.623892,174.14528 Z M106.623892,172.9 L106.623892,172.9 L106.623892,187.192977 L99.4401508,187.192977 L99.4401508,172.9 L106.623892,172.9 Z" id="Rectangle-59-Copy-98"></path>
                <path d="M106.623892,121.64528 L106.623892,121.64528 L99.4401508,121.64528 L100.686457,120.4 L100.686457,151.521805 L99.4401508,150.276525 L106.623892,150.276525 L105.377586,151.521805 L105.377586,120.4 L106.623892,121.64528 Z M106.623892,120.4 L106.623892,120.4 L106.623892,151.521805 L99.4401508,151.521805 L99.4401508,120.4 L106.623892,120.4 Z" id="Rectangle-59-Copy-99"></path>
                <path d="M116.696549,168.681056 C119.044153,164.972185 122.999077,162.94528 127.843466,162.94528 C132.292219,162.94528 136.518668,165.169232 139.007256,168.706325 C139.205182,168.987642 139.593873,169.055377 139.875422,168.857613 C140.156971,168.65985 140.224761,168.271478 140.026835,167.990161 C137.306373,164.123499 132.700699,161.7 127.843466,161.7 C122.584809,161.7 118.227056,163.933355 115.643225,168.01543 C115.459267,168.306058 115.545933,168.690664 115.836801,168.874472 C116.127668,169.058279 116.512591,168.971684 116.696549,168.681056 L116.696549,168.681056 Z" id="Oval-14-Copy-13"></path>
                <polygon id="Path-395-Copy-8" points="99.4401508 130.04528 105.638824 130.04528 105.638824 128.8 99.4401508 128.8"></polygon>
                <polygon id="Path-395-Copy-9" points="137.955702 130.04528 144.154376 130.04528 144.154376 128.8 137.955702 128.8"></polygon>
                <polygon id="Path-395-Copy-10" points="112.04524 130.04528 118.243914 130.04528 118.243914 128.8 112.04524 128.8"></polygon>
                <polygon id="Path-395-Copy-11" points="150.560792 130.04528 156.759465 130.04528 156.759465 128.8 150.560792 128.8"></polygon>
                <polygon id="Path-395-Copy-12" points="99.4401508 142.64528 105.638824 142.64528 105.638824 141.4 99.4401508 141.4"></polygon>
                <polygon id="Path-395-Copy-13" points="137.955702 142.64528 144.154376 142.64528 144.154376 141.4 137.955702 141.4"></polygon>
                <polygon id="Path-395-Copy-14" points="112.04524 142.64528 118.243914 142.64528 118.243914 141.4 112.04524 141.4"></polygon>
                <polygon id="Path-395-Copy-15" points="150.560792 142.64528 156.759465 142.64528 156.759465 141.4 150.560792 141.4"></polygon>
                <path d="M97.5202159,61.4452804 L97.5202159,61.4452804 L90.336475,61.4452804 L91.5827811,60.2 L91.5827811,74.4929773 L90.336475,73.247697 L97.5202159,73.247697 L96.2739099,74.4929773 L96.2739099,60.2 L97.5202159,61.4452804 Z M97.5202159,60.2 L97.5202159,60.2 L97.5202159,74.4929773 L90.336475,74.4929773 L90.336475,60.2 L97.5202159,60.2 Z" id="Rectangle-59-Copy-100"></path>
                <path d="M83.5282569,61.9945299 L83.5282569,61.9945299 L84.1720142,60.743917 L84.1720142,79.1925152 L82.6333648,77.655132 L105.713106,77.655132 L104.174457,79.1925152 L104.174457,60.743917 L104.818214,61.9945299 L93.2783433,53.7506129 L95.0681276,53.7506129 L83.5282569,61.9945299 Z M82.6333648,60.743917 L94.1732355,52.5 L105.713106,60.743917 L105.713106,79.1925152 L82.6333648,79.1925152 L82.6333648,60.743917 L82.6333648,60.743917 Z" id="Rectangle-123"></path>
                <path d="M292.899104,61.4452804 L292.899104,61.4452804 L285.715363,61.4452804 L286.961669,60.2 L286.961669,74.4929773 L285.715363,73.247697 L292.899104,73.247697 L291.652798,74.4929773 L291.652798,60.2 L292.899104,61.4452804 Z M292.899104,60.2 L292.899104,60.2 L292.899104,74.4929773 L285.715363,74.4929773 L285.715363,60.2 L292.899104,60.2 Z" id="Rectangle-59-Copy-100"></path>
                <path d="M278.907145,61.9945299 L278.907145,61.9945299 L279.550902,60.743917 L279.550902,79.1925152 L278.012253,77.655132 L301.091994,77.655132 L299.553345,79.1925152 L299.553345,60.743917 L300.197102,61.9945299 L288.657231,53.7506129 L290.447015,53.7506129 L278.907145,61.9945299 Z M278.012253,60.743917 L289.552123,52.5 L301.091994,60.743917 L301.091994,79.1925152 L278.012253,79.1925152 L278.012253,60.743917 L278.012253,60.743917 Z" id="Rectangle-123"></path>
                <path d="M180.167277,61.9945299 L180.167277,61.9945299 L180.811034,60.743917 L180.811034,79.1925152 L179.272385,77.655132 L202.352126,77.655132 L200.813477,79.1925152 L200.813477,60.743917 L201.457234,61.9945299 L189.917363,53.7506129 L191.707147,53.7506129 L180.167277,61.9945299 Z M179.272385,60.743917 L190.812255,52.5 L202.352126,60.743917 L202.352126,79.1925152 L179.272385,79.1925152 L179.272385,60.743917 L179.272385,60.743917 Z" id="Rectangle-123"></path>
                <polygon id="Path-3052" points="191.315275 54.5966997 191.315275 31.5686916 190.545951 32.3373832 203.670526 32.3373832 202.901201 31.5686916 202.901201 39.0578262 203.670526 38.2891347 190.545951 38.2891349 190.545951 39.8265181 203.670526 39.8265178 204.439851 39.8265178 204.439851 39.0578262 204.439851 31.5686916 204.439851 30.8 203.670526 30.8 190.545951 30.8 189.776626 30.8 189.776626 31.5686916 189.776626 54.5966997"></polygon>
                <path d="M191.167328,74.8738318 C195.416191,74.8738318 198.860575,71.4322823 198.860575,67.1869159 C198.860575,62.9415495 195.416191,59.5 191.167328,59.5 C186.918465,59.5 183.474081,62.9415495 183.474081,67.1869159 C183.474081,71.4322823 186.918465,74.8738318 191.167328,74.8738318 L191.167328,74.8738318 Z M191.167328,73.3364486 C187.768238,73.3364486 185.01273,70.583209 185.01273,67.1869159 C185.01273,63.7906228 187.768238,61.0373832 191.167328,61.0373832 C194.566419,61.0373832 197.321926,63.7906228 197.321926,67.1869159 C197.321926,70.583209 194.566419,73.3364486 191.167328,73.3364486 L191.167328,73.3364486 Z" id="Oval-29"></path>
                <polygon id="Path-3051" points="190.476909 62.3 190.476909 67.0183835 190.476909 67.7870751 191.246233 67.7870751 195.044232 67.7870751 195.044232 66.2496919 191.246233 66.2496919 192.015558 67.0183835 192.015558 62.3"></polygon>
                <path d="M301.121583,88.603078 L301.121583,77.7 L82.6333648,77.7 L82.6333648,194.541121 L295.794989,194.541121 L301.121583,189.339924 L301.121583,148.593839 C300.487135,146.262563 299.561253,142.842675 298.879472,140.249271 L298.935102,191.131264 L297.47083,192.361839 L82.6333648,192.235047 L84.9413389,194.541121 L84.9413389,80.0060748 L298.813608,80.0060748 L298.83098,95.8957108 L301.121583,88.603078 Z" id="Combined-Shape"></path>
            </g>
        </g>
    </g>
</svg>